<svg width="17" height="11" viewBox="0 0 17 11" fill="none" xmlns="http://www.w3.org/2000/svg">
<path d="M9.16667 4.8335C9.56223 4.8335 9.94891 4.7162 10.2778 4.49644C10.6067 4.27667 10.8631 3.96432 11.0144 3.59886C11.1658 3.23341 11.2054 2.83128 11.1282 2.44332C11.0511 2.05535 10.8606 1.69899 10.5809 1.41928C10.3012 1.13958 9.94481 0.949097 9.55685 0.871926C9.16889 0.794756 8.76675 0.834363 8.4013 0.985738C8.03585 1.13711 7.72349 1.39346 7.50373 1.72236C7.28397 2.05125 7.16667 2.43793 7.16667 2.8335C7.16667 3.36393 7.37738 3.87264 7.75245 4.24771C8.12753 4.62278 8.63623 4.8335 9.16667 4.8335ZM9.16667 2.16683C9.29852 2.16683 9.42741 2.20593 9.53705 2.27918C9.64668 2.35244 9.73213 2.45656 9.78259 2.57837C9.83305 2.70019 9.84625 2.83424 9.82052 2.96356C9.7948 3.09288 9.73131 3.21167 9.63807 3.3049C9.54484 3.39814 9.42605 3.46163 9.29673 3.48735C9.16741 3.51308 9.03336 3.49988 8.91154 3.44942C8.78973 3.39896 8.68561 3.31351 8.61235 3.20388C8.5391 3.09424 8.5 2.96535 8.5 2.8335C8.5 2.65669 8.57024 2.48712 8.69526 2.36209C8.82029 2.23707 8.98986 2.16683 9.16667 2.16683ZM11.9067 4.74016C12.2967 4.18085 12.5058 3.51538 12.5058 2.8335C12.5058 2.15162 12.2967 1.48614 11.9067 0.92683C12.0984 0.865106 12.2986 0.833617 12.5 0.833497C13.0304 0.833497 13.5391 1.04421 13.9142 1.41928C14.2893 1.79436 14.5 2.30306 14.5 2.8335C14.5 3.36393 14.2893 3.87264 13.9142 4.24771C13.5391 4.62278 13.0304 4.8335 12.5 4.8335C12.2986 4.83338 12.0984 4.80189 11.9067 4.74016ZM9.16667 6.16683C5.16667 6.16683 5.16667 8.8335 5.16667 8.8335V10.1668H13.1667V8.8335C13.1667 8.8335 13.1667 6.16683 9.16667 6.16683ZM6.5 8.8335C6.5 8.64016 6.71333 7.50016 9.16667 7.50016C11.5 7.50016 11.7933 8.54016 11.8333 8.8335M16.5 8.8335V10.1668H14.5V8.8335C14.4844 8.33793 14.3703 7.85042 14.1643 7.39944C13.9582 6.94846 13.6644 6.54303 13.3 6.20683C16.5 6.5335 16.5 8.8335 16.5 8.8335ZM5.83333 5.50016H3.83333V7.50016H2.5V5.50016H0.5V4.16683H2.5V2.16683H3.83333V4.16683H5.83333V5.50016Z" fill="black"/>
</svg>
