<svg width="15" height="16" viewBox="0 0 15 16" fill="none" xmlns="http://www.w3.org/2000/svg">
<path d="M13.4253 1.8248C14.1136 2.51558 14.5001 3.45103 14.5001 4.42623C14.5001 5.40143 14.1136 6.33688 13.4253 7.02767L12.1203 8.32412C11.165 9.2794 9.81739 9.57793 8.58917 9.25382L10.8238 7.02767L11.4721 6.37091L12.1203 5.72269C12.8368 5.00622 12.8368 3.84624 12.1203 3.12978C11.9512 2.95751 11.7494 2.82067 11.5268 2.72726C11.3042 2.63385 11.0653 2.58573 10.8238 2.58573C10.5824 2.58573 10.3435 2.63385 10.1209 2.72726C9.89826 2.82067 9.69651 2.95751 9.52739 3.12978L8.87064 3.77801L5.98773 6.66091C5.67215 5.43269 5.97067 4.08506 6.92596 3.12978L8.22241 1.8248C8.9132 1.13645 9.84865 0.749939 10.8238 0.749939C11.799 0.749939 12.7345 1.13645 13.4253 1.8248ZM5.62097 10.9256L10.1756 6.37091C10.5339 6.01268 10.5339 5.43269 10.1756 5.07446C9.80033 4.7077 9.21181 4.74182 8.87064 5.07446L4.32452 9.62911C3.96629 9.98734 3.96629 10.5673 4.32452 10.9256C4.69981 11.2923 5.28833 11.2582 5.62097 10.9256ZM4.97275 12.8788L8.50388 9.33911C8.82799 10.5673 8.52947 11.915 7.57418 12.8702L6.27773 14.1752C5.58694 14.8636 4.65149 15.2501 3.67629 15.2501C2.70109 15.2501 1.76565 14.8636 1.07486 14.1752C0.386507 13.4844 0 12.549 0 11.5738C0 10.5986 0.386507 9.66314 1.07486 8.97235L2.37984 7.6759C3.33512 6.72061 4.68275 6.42209 5.91097 6.73767L2.37984 10.2773C1.65485 10.9938 1.65485 12.1538 2.37984 12.8788C3.0963 13.5952 4.25629 13.5952 4.97275 12.8788Z" fill="#5ED6D5"/>
</svg>
