<svg width="17" height="16" viewBox="0 0 17 16" fill="none" xmlns="http://www.w3.org/2000/svg">
<path d="M15.167 2.16667V13.8333H1.83366V2.16667H15.167ZM15.167 0.5H1.83366C0.908659 0.5 0.166992 1.24167 0.166992 2.16667V13.8333C0.166992 14.7583 0.908659 15.5 1.83366 15.5H15.167C16.092 15.5 16.8337 14.7583 16.8337 13.8333V2.16667C16.8337 1.24167 16.092 0.5 15.167 0.5ZM13.5003 10.5H3.50033V12.1667H13.5003V10.5ZM6.83366 3.83333H3.50033V8.83333H6.83366V3.83333ZM8.50033 5.5H13.5003V3.83333H8.50033V5.5ZM13.5003 7.16667H8.50033V8.83333H13.5003V7.16667Z" fill="#6B7280"/>
</svg>
