<svg width="17" height="15" viewBox="0 0 17 15" fill="none" xmlns="http://www.w3.org/2000/svg">
<path d="M16.5174 2.70409C16.4865 2.70409 15.8268 2.68021 14.8661 2.70409V0.568742C14.8661 0.253455 14.6182 0.00504758 14.326 0.0289329C12.4003 0.205685 9.95651 1.12288 8.5 2.79486C7.04349 1.12288 4.59974 0.205685 2.67839 0.03371C2.3862 0.00982465 2.13828 0.258232 2.13828 0.573519V2.76142C1.58932 2.73753 1.07135 2.7232 0.517969 2.70409C0.234635 2.69454 0 2.93817 0 3.2439V13.0703C0 13.3522 0.203646 13.591 0.464844 13.6101C2.4526 13.7535 5.7862 13.7726 8.30078 14.9286C8.52656 15.0337 8.72578 14.9143 8.69479 14.9286C11.2094 13.7726 14.543 13.7535 16.5307 13.6101C16.7919 13.591 16.9956 13.357 16.9956 13.0703V3.2439C17 2.9525 16.7875 2.71365 16.5174 2.70409ZM13.8656 1.17543V10.4238C12.4224 10.7726 10.5984 11.513 9.00026 13.0894C9.00026 12.6165 9.00026 4.07033 9.00026 3.81715C10.0938 2.34104 12.1656 1.45728 13.8656 1.17543ZM3.13438 1.17543C4.83437 1.45728 6.90625 2.34104 7.99974 3.81715V13.0894C6.40156 11.513 4.5776 10.7726 3.13438 10.4238V1.17543ZM1.00052 12.564V3.79804C1.35911 3.8076 1.73984 3.82193 2.13385 3.83626V10.8586C2.13385 11.1165 2.30651 11.341 2.54115 11.3888C3.68333 11.6181 5.16641 12.1197 6.55208 13.2041C4.5776 12.7312 2.51016 12.6547 1.00052 12.564ZM15.9995 12.564C14.4898 12.6547 12.4224 12.7312 10.4479 13.2089C11.8336 12.1293 13.3167 11.6277 14.4589 11.3936C14.6935 11.3458 14.8661 11.1213 14.8661 10.8633V3.78371C15.3266 3.77416 15.7161 3.77416 15.9995 3.77416V12.564Z" fill="#5E86AE"/>
<path d="M6.7026 5.05927C6.31745 4.76787 5.64896 4.40958 4.9362 4.2806C4.66614 4.23283 4.40495 4.42869 4.36068 4.72487C4.3164 5.01627 4.49792 5.29812 4.77239 5.34589C5.32135 5.44621 5.84818 5.73283 6.13594 5.9478C6.36172 6.11978 6.67604 6.05767 6.83099 5.81404C6.98594 5.56564 6.92838 5.23124 6.7026 5.05927Z" fill="#5E86AE"/>
<path d="M6.6539 8.09756C6.29974 7.86349 5.60026 7.45266 4.9362 7.32846C4.66614 7.28068 4.40495 7.47654 4.36068 7.77272C4.3164 8.0689 4.49792 8.34597 4.77239 8.39374C5.29036 8.48928 5.89687 8.86189 6.13594 9.01954C6.37057 9.17718 6.68047 9.09597 6.82213 8.83801C6.9638 8.58482 6.88854 8.25043 6.6539 8.09756Z" fill="#5E86AE"/>
<path d="M10.8685 5.94292C11.1518 5.72795 11.6786 5.44133 12.232 5.34101C12.5021 5.29324 12.688 5.01139 12.6437 4.71999C12.5995 4.42381 12.3383 4.22795 12.0682 4.27572C11.3555 4.4047 10.687 4.76298 10.3018 5.05439C10.076 5.22636 10.0185 5.56076 10.1779 5.80439C10.3284 6.05279 10.6427 6.1149 10.8685 5.94292Z" fill="#5E86AE"/>
<path d="M12.0638 7.32846C11.3997 7.44788 10.7047 7.86349 10.3461 8.09756C10.1115 8.25521 10.0362 8.58482 10.1779 8.83801C10.324 9.09119 10.6294 9.1724 10.8641 9.01954C11.1031 8.86189 11.7096 8.48928 12.2276 8.39374C12.4977 8.34597 12.6836 8.06412 12.6393 7.77272C12.5951 7.47654 12.3339 7.28068 12.0638 7.32846Z" fill="#5E86AE"/>
</svg>
