<svg width="16" height="15" viewBox="0 0 16 15" fill="none" xmlns="http://www.w3.org/2000/svg">
<path fill-rule="evenodd" clip-rule="evenodd" d="M0.399902 0.79021C0.399902 0.378464 0.728414 0.0446777 1.13365 0.0446777H6.26992C6.67516 0.0446777 7.00367 0.378464 7.00367 0.79021V6.00894C7.00367 6.42069 6.67516 6.75447 6.26992 6.75447H1.13365C0.728414 6.75447 0.399902 6.42069 0.399902 6.00894V0.79021ZM1.86741 1.53574V5.26341H5.53617V1.53574H1.86741Z" fill="#637381"/>
<path fill-rule="evenodd" clip-rule="evenodd" d="M8.47119 0.79018C8.47119 0.378434 8.7997 0.0446472 9.20494 0.0446472H14.3412C14.7465 0.0446472 15.075 0.378434 15.075 0.79018V6.00891C15.075 6.42066 14.7465 6.75444 14.3412 6.75444H9.20494C8.7997 6.75444 8.47119 6.42066 8.47119 6.00891V0.79018ZM9.9387 1.53571V5.26338H13.6075V1.53571H9.9387Z" fill="#637381"/>
<path fill-rule="evenodd" clip-rule="evenodd" d="M8.47119 8.99106C8.47119 8.57932 8.7997 8.24553 9.20494 8.24553H14.3412C14.7465 8.24553 15.075 8.57932 15.075 8.99106V14.2098C15.075 14.6215 14.7465 14.9553 14.3412 14.9553H9.20494C8.7997 14.9553 8.47119 14.6215 8.47119 14.2098V8.99106ZM9.9387 9.73659V13.4643H13.6075V9.73659H9.9387Z" fill="#637381"/>
<path fill-rule="evenodd" clip-rule="evenodd" d="M0.400024 8.99106C0.400024 8.57932 0.728536 8.24553 1.13378 8.24553H6.27004C6.67528 8.24553 7.0038 8.57932 7.0038 8.99106V14.2098C7.0038 14.6215 6.67528 14.9553 6.27004 14.9553H1.13378C0.728536 14.9553 0.400024 14.6215 0.400024 14.2098V8.99106ZM1.86753 9.73659V13.4643H5.53629V9.73659H1.86753Z" fill="#637381"/>
</svg>
