<svg width="24" height="26" viewBox="0 0 24 26" fill="none" xmlns="http://www.w3.org/2000/svg">
<path d="M22.2468 5.12582C20.3755 4.93986 18.5043 4.80039 16.6215 4.69578V4.68416L16.3658 3.17324C16.1914 2.10397 15.9357 0.500061 13.2161 0.500061H10.171C7.4629 0.500061 7.2072 2.03423 7.02124 3.16161L6.77717 4.64929C5.69628 4.71903 4.61539 4.78876 3.53449 4.89337L1.1635 5.12582C0.675359 5.17231 0.326684 5.60234 0.373174 6.07886C0.419664 6.55538 0.838074 6.90406 1.32622 6.85757L3.69721 6.62512C9.78744 6.02075 15.9241 6.2532 22.084 6.86919H22.177C22.6187 6.86919 23.0022 6.53214 23.0487 6.07886C23.0836 5.60234 22.7349 5.17231 22.2468 5.12582Z" fill="#1C4A5A"/>
<path opacity="0.3991" d="M20.1082 8.50797C19.8293 8.2174 19.4458 8.05469 19.0506 8.05469H4.35982C3.96465 8.05469 3.56949 8.2174 3.30217 8.50797C3.03485 8.79853 2.88376 9.19369 2.90701 9.60048L3.6276 21.5252C3.75545 23.2918 3.91816 25.5001 7.97442 25.5001H15.436C19.4923 25.5001 19.6551 23.3034 19.7828 21.5252L20.5034 9.6121C20.5267 9.19369 20.3756 8.79853 20.1082 8.50797Z" fill="#637381"/>
<path fill-rule="evenodd" clip-rule="evenodd" d="M8.89294 18.8055C8.89294 18.3241 9.2832 17.9338 9.76466 17.9338H13.6349C14.1164 17.9338 14.5066 18.3241 14.5066 18.8055C14.5066 19.2869 14.1164 19.6772 13.6349 19.6772H9.76466C9.2832 19.6772 8.89294 19.2869 8.89294 18.8055Z" fill="#1C4A5A"/>
<path fill-rule="evenodd" clip-rule="evenodd" d="M7.92822 14.1565C7.92822 13.6751 8.31849 13.2848 8.79991 13.2848H14.6112C15.0926 13.2848 15.4828 13.6751 15.4828 14.1565C15.4828 14.6379 15.0926 15.0282 14.6112 15.0282H8.79991C8.31849 15.0282 7.92822 14.6379 7.92822 14.1565Z" fill="#1C4A5A"/>
</svg>
