<svg width="16" height="16" viewBox="0 0 16 16" fill="none" xmlns="http://www.w3.org/2000/svg">
<mask id="path-1-outside-1_840_5627" maskUnits="userSpaceOnUse" x="0" y="0" width="16" height="16" fill="black">
<rect fill="white" width="16" height="16"/>
<path d="M8.65333 15H7.34667C6.90508 15 6.53233 14.6692 6.47983 14.23L6.34042 13.1357C6.06217 13.0452 5.79383 12.9338 5.53892 12.8038L4.66742 13.481C4.31392 13.7546 3.81633 13.7231 3.5095 13.4075L2.59075 12.4887C2.2775 12.1848 2.246 11.6872 2.51958 11.3343L3.19683 10.4622C3.06617 10.2073 2.95475 9.939 2.86492 9.66075L1.76825 9.52133C1.33075 9.46767 1 9.09492 1 8.65333V7.34667C1 6.90508 1.33075 6.53233 1.77 6.47983L2.86433 6.34042C2.95475 6.06217 3.06617 5.79383 3.19625 5.53892L2.51958 4.66742C2.24542 4.31392 2.2775 3.81575 2.59367 3.50892L3.51242 2.59017C3.81633 2.27692 4.3145 2.246 4.66683 2.519L5.53833 3.19683C5.79325 3.06675 6.06158 2.95533 6.34042 2.86492L6.47983 1.76825C6.53233 1.33075 6.90508 1 7.34667 1H8.65333C9.09492 1 9.46767 1.33075 9.52017 1.77L9.65958 2.86433C9.93842 2.95475 10.2067 3.06617 10.4617 3.19625L11.3332 2.519C11.6873 2.24542 12.1842 2.27692 12.4911 2.59308L13.4098 3.51183C13.7231 3.81575 13.7546 4.31333 13.481 4.66625L12.8038 5.53833C12.9344 5.79325 13.0458 6.06158 13.1357 6.33983L14.2323 6.47925C14.6692 6.53233 15 6.90508 15 7.34667V8.65333C15 9.09492 14.6692 9.46767 14.23 9.52017L13.1357 9.65958C13.0452 9.93783 12.9338 10.2062 12.8038 10.4611L13.481 11.3326C13.7552 11.6861 13.7231 12.1837 13.4069 12.4905L12.4882 13.4093C12.1842 13.7225 11.6861 13.7546 11.3337 13.4804L10.4617 12.8032C10.2067 12.9338 9.93842 13.0452 9.66017 13.1351L9.52075 14.2317C9.46767 14.6692 9.09492 15 8.65333 15ZM5.50917 12.165C5.55758 12.165 5.60717 12.1772 5.6515 12.2017C5.97292 12.3814 6.32117 12.5261 6.68633 12.6311C6.79833 12.6632 6.88058 12.7588 6.89517 12.8743L7.0585 14.1577C7.076 14.3041 7.20258 14.4167 7.34667 14.4167H8.65333C8.79742 14.4167 8.924 14.3041 8.94092 14.1606L9.10483 12.8749C9.11942 12.7594 9.20167 12.6637 9.31367 12.6317C9.67883 12.5267 10.0271 12.382 10.3485 12.2023C10.4506 12.1452 10.5778 12.1551 10.6693 12.2268L11.6902 13.0202C11.8074 13.1112 11.9719 13.1036 12.0723 13.0003L12.9968 12.0757C13.1024 11.9731 13.1106 11.8086 13.0196 11.6907L12.2262 10.6699C12.1545 10.5777 12.1446 10.4512 12.2017 10.3491C12.3814 10.0277 12.5261 9.67942 12.6311 9.31425C12.6632 9.20225 12.7588 9.12 12.8743 9.10542L14.1577 8.94208C14.3041 8.924 14.4167 8.79742 14.4167 8.65333V7.34667C14.4167 7.20258 14.3041 7.076 14.1606 7.05908L12.8749 6.89517C12.7594 6.88058 12.6637 6.79833 12.6317 6.68633C12.5267 6.32117 12.382 5.97292 12.2023 5.6515C12.1452 5.54942 12.1545 5.42283 12.2268 5.33067L13.0202 4.30983C13.1117 4.192 13.1036 4.0275 13.0009 3.92833L12.0763 3.00375C11.9742 2.89758 11.8092 2.88942 11.6913 2.981L10.6705 3.77433C10.5777 3.84608 10.4512 3.856 10.3491 3.79883C10.0288 3.61917 9.68058 3.47508 9.31425 3.3695C9.20225 3.33742 9.12 3.24175 9.10542 3.12625L8.94208 1.84292C8.924 1.69592 8.79742 1.58333 8.65333 1.58333H7.34667C7.20258 1.58333 7.076 1.69592 7.05908 1.83942L6.89517 3.12508C6.88058 3.24058 6.79833 3.33625 6.68633 3.36892C6.32 3.47392 5.97175 3.61858 5.6515 3.79767C5.54942 3.85542 5.42283 3.84492 5.33008 3.77375L4.30925 2.98042C4.19142 2.88883 4.0275 2.897 3.92775 2.99967L3.00317 3.92483C2.89758 4.0275 2.88942 4.192 2.98042 4.30983L3.77375 5.33067C3.8455 5.42283 3.85542 5.54942 3.79825 5.6515C3.618 5.97292 3.47392 6.32117 3.36892 6.68633C3.33683 6.79833 3.24117 6.88058 3.12567 6.89517L1.84233 7.0585C1.69592 7.076 1.58333 7.20258 1.58333 7.34667V8.65333C1.58333 8.79742 1.69592 8.924 1.83942 8.94092L3.12508 9.10483C3.24058 9.11942 3.33625 9.20167 3.36833 9.31367C3.47333 9.67883 3.618 10.0271 3.79767 10.3485C3.85483 10.4506 3.8455 10.5772 3.77317 10.6693L2.97983 11.6902C2.88825 11.808 2.89642 11.9725 2.99908 12.0717L3.92367 12.9963C4.02575 13.1018 4.18967 13.11 4.30867 13.019L5.3295 12.2257C5.38258 12.186 5.44558 12.165 5.50917 12.165Z"/>
</mask>
<path d="M8.65333 15H7.34667C6.90508 15 6.53233 14.6692 6.47983 14.23L6.34042 13.1357C6.06217 13.0452 5.79383 12.9338 5.53892 12.8038L4.66742 13.481C4.31392 13.7546 3.81633 13.7231 3.5095 13.4075L2.59075 12.4887C2.2775 12.1848 2.246 11.6872 2.51958 11.3343L3.19683 10.4622C3.06617 10.2073 2.95475 9.939 2.86492 9.66075L1.76825 9.52133C1.33075 9.46767 1 9.09492 1 8.65333V7.34667C1 6.90508 1.33075 6.53233 1.77 6.47983L2.86433 6.34042C2.95475 6.06217 3.06617 5.79383 3.19625 5.53892L2.51958 4.66742C2.24542 4.31392 2.2775 3.81575 2.59367 3.50892L3.51242 2.59017C3.81633 2.27692 4.3145 2.246 4.66683 2.519L5.53833 3.19683C5.79325 3.06675 6.06158 2.95533 6.34042 2.86492L6.47983 1.76825C6.53233 1.33075 6.90508 1 7.34667 1H8.65333C9.09492 1 9.46767 1.33075 9.52017 1.77L9.65958 2.86433C9.93842 2.95475 10.2067 3.06617 10.4617 3.19625L11.3332 2.519C11.6873 2.24542 12.1842 2.27692 12.4911 2.59308L13.4098 3.51183C13.7231 3.81575 13.7546 4.31333 13.481 4.66625L12.8038 5.53833C12.9344 5.79325 13.0458 6.06158 13.1357 6.33983L14.2323 6.47925C14.6692 6.53233 15 6.90508 15 7.34667V8.65333C15 9.09492 14.6692 9.46767 14.23 9.52017L13.1357 9.65958C13.0452 9.93783 12.9338 10.2062 12.8038 10.4611L13.481 11.3326C13.7552 11.6861 13.7231 12.1837 13.4069 12.4905L12.4882 13.4093C12.1842 13.7225 11.6861 13.7546 11.3337 13.4804L10.4617 12.8032C10.2067 12.9338 9.93842 13.0452 9.66017 13.1351L9.52075 14.2317C9.46767 14.6692 9.09492 15 8.65333 15ZM5.50917 12.165C5.55758 12.165 5.60717 12.1772 5.6515 12.2017C5.97292 12.3814 6.32117 12.5261 6.68633 12.6311C6.79833 12.6632 6.88058 12.7588 6.89517 12.8743L7.0585 14.1577C7.076 14.3041 7.20258 14.4167 7.34667 14.4167H8.65333C8.79742 14.4167 8.924 14.3041 8.94092 14.1606L9.10483 12.8749C9.11942 12.7594 9.20167 12.6637 9.31367 12.6317C9.67883 12.5267 10.0271 12.382 10.3485 12.2023C10.4506 12.1452 10.5778 12.1551 10.6693 12.2268L11.6902 13.0202C11.8074 13.1112 11.9719 13.1036 12.0723 13.0003L12.9968 12.0757C13.1024 11.9731 13.1106 11.8086 13.0196 11.6907L12.2262 10.6699C12.1545 10.5777 12.1446 10.4512 12.2017 10.3491C12.3814 10.0277 12.5261 9.67942 12.6311 9.31425C12.6632 9.20225 12.7588 9.12 12.8743 9.10542L14.1577 8.94208C14.3041 8.924 14.4167 8.79742 14.4167 8.65333V7.34667C14.4167 7.20258 14.3041 7.076 14.1606 7.05908L12.8749 6.89517C12.7594 6.88058 12.6637 6.79833 12.6317 6.68633C12.5267 6.32117 12.382 5.97292 12.2023 5.6515C12.1452 5.54942 12.1545 5.42283 12.2268 5.33067L13.0202 4.30983C13.1117 4.192 13.1036 4.0275 13.0009 3.92833L12.0763 3.00375C11.9742 2.89758 11.8092 2.88942 11.6913 2.981L10.6705 3.77433C10.5777 3.84608 10.4512 3.856 10.3491 3.79883C10.0288 3.61917 9.68058 3.47508 9.31425 3.3695C9.20225 3.33742 9.12 3.24175 9.10542 3.12625L8.94208 1.84292C8.924 1.69592 8.79742 1.58333 8.65333 1.58333H7.34667C7.20258 1.58333 7.076 1.69592 7.05908 1.83942L6.89517 3.12508C6.88058 3.24058 6.79833 3.33625 6.68633 3.36892C6.32 3.47392 5.97175 3.61858 5.6515 3.79767C5.54942 3.85542 5.42283 3.84492 5.33008 3.77375L4.30925 2.98042C4.19142 2.88883 4.0275 2.897 3.92775 2.99967L3.00317 3.92483C2.89758 4.0275 2.88942 4.192 2.98042 4.30983L3.77375 5.33067C3.8455 5.42283 3.85542 5.54942 3.79825 5.6515C3.618 5.97292 3.47392 6.32117 3.36892 6.68633C3.33683 6.79833 3.24117 6.88058 3.12567 6.89517L1.84233 7.0585C1.69592 7.076 1.58333 7.20258 1.58333 7.34667V8.65333C1.58333 8.79742 1.69592 8.924 1.83942 8.94092L3.12508 9.10483C3.24058 9.11942 3.33625 9.20167 3.36833 9.31367C3.47333 9.67883 3.618 10.0271 3.79767 10.3485C3.85483 10.4506 3.8455 10.5772 3.77317 10.6693L2.97983 11.6902C2.88825 11.808 2.89642 11.9725 2.99908 12.0717L3.92367 12.9963C4.02575 13.1018 4.18967 13.11 4.30867 13.019L5.3295 12.2257C5.38258 12.186 5.44558 12.165 5.50917 12.165Z" fill="#F2994A"/>
<path d="M8.65333 15H7.34667C6.90508 15 6.53233 14.6692 6.47983 14.23L6.34042 13.1357C6.06217 13.0452 5.79383 12.9338 5.53892 12.8038L4.66742 13.481C4.31392 13.7546 3.81633 13.7231 3.5095 13.4075L2.59075 12.4887C2.2775 12.1848 2.246 11.6872 2.51958 11.3343L3.19683 10.4622C3.06617 10.2073 2.95475 9.939 2.86492 9.66075L1.76825 9.52133C1.33075 9.46767 1 9.09492 1 8.65333V7.34667C1 6.90508 1.33075 6.53233 1.77 6.47983L2.86433 6.34042C2.95475 6.06217 3.06617 5.79383 3.19625 5.53892L2.51958 4.66742C2.24542 4.31392 2.2775 3.81575 2.59367 3.50892L3.51242 2.59017C3.81633 2.27692 4.3145 2.246 4.66683 2.519L5.53833 3.19683C5.79325 3.06675 6.06158 2.95533 6.34042 2.86492L6.47983 1.76825C6.53233 1.33075 6.90508 1 7.34667 1H8.65333C9.09492 1 9.46767 1.33075 9.52017 1.77L9.65958 2.86433C9.93842 2.95475 10.2067 3.06617 10.4617 3.19625L11.3332 2.519C11.6873 2.24542 12.1842 2.27692 12.4911 2.59308L13.4098 3.51183C13.7231 3.81575 13.7546 4.31333 13.481 4.66625L12.8038 5.53833C12.9344 5.79325 13.0458 6.06158 13.1357 6.33983L14.2323 6.47925C14.6692 6.53233 15 6.90508 15 7.34667V8.65333C15 9.09492 14.6692 9.46767 14.23 9.52017L13.1357 9.65958C13.0452 9.93783 12.9338 10.2062 12.8038 10.4611L13.481 11.3326C13.7552 11.6861 13.7231 12.1837 13.4069 12.4905L12.4882 13.4093C12.1842 13.7225 11.6861 13.7546 11.3337 13.4804L10.4617 12.8032C10.2067 12.9338 9.93842 13.0452 9.66017 13.1351L9.52075 14.2317C9.46767 14.6692 9.09492 15 8.65333 15ZM5.50917 12.165C5.55758 12.165 5.60717 12.1772 5.6515 12.2017C5.97292 12.3814 6.32117 12.5261 6.68633 12.6311C6.79833 12.6632 6.88058 12.7588 6.89517 12.8743L7.0585 14.1577C7.076 14.3041 7.20258 14.4167 7.34667 14.4167H8.65333C8.79742 14.4167 8.924 14.3041 8.94092 14.1606L9.10483 12.8749C9.11942 12.7594 9.20167 12.6637 9.31367 12.6317C9.67883 12.5267 10.0271 12.382 10.3485 12.2023C10.4506 12.1452 10.5778 12.1551 10.6693 12.2268L11.6902 13.0202C11.8074 13.1112 11.9719 13.1036 12.0723 13.0003L12.9968 12.0757C13.1024 11.9731 13.1106 11.8086 13.0196 11.6907L12.2262 10.6699C12.1545 10.5777 12.1446 10.4512 12.2017 10.3491C12.3814 10.0277 12.5261 9.67942 12.6311 9.31425C12.6632 9.20225 12.7588 9.12 12.8743 9.10542L14.1577 8.94208C14.3041 8.924 14.4167 8.79742 14.4167 8.65333V7.34667C14.4167 7.20258 14.3041 7.076 14.1606 7.05908L12.8749 6.89517C12.7594 6.88058 12.6637 6.79833 12.6317 6.68633C12.5267 6.32117 12.382 5.97292 12.2023 5.6515C12.1452 5.54942 12.1545 5.42283 12.2268 5.33067L13.0202 4.30983C13.1117 4.192 13.1036 4.0275 13.0009 3.92833L12.0763 3.00375C11.9742 2.89758 11.8092 2.88942 11.6913 2.981L10.6705 3.77433C10.5777 3.84608 10.4512 3.856 10.3491 3.79883C10.0288 3.61917 9.68058 3.47508 9.31425 3.3695C9.20225 3.33742 9.12 3.24175 9.10542 3.12625L8.94208 1.84292C8.924 1.69592 8.79742 1.58333 8.65333 1.58333H7.34667C7.20258 1.58333 7.076 1.69592 7.05908 1.83942L6.89517 3.12508C6.88058 3.24058 6.79833 3.33625 6.68633 3.36892C6.32 3.47392 5.97175 3.61858 5.6515 3.79767C5.54942 3.85542 5.42283 3.84492 5.33008 3.77375L4.30925 2.98042C4.19142 2.88883 4.0275 2.897 3.92775 2.99967L3.00317 3.92483C2.89758 4.0275 2.88942 4.192 2.98042 4.30983L3.77375 5.33067C3.8455 5.42283 3.85542 5.54942 3.79825 5.6515C3.618 5.97292 3.47392 6.32117 3.36892 6.68633C3.33683 6.79833 3.24117 6.88058 3.12567 6.89517L1.84233 7.0585C1.69592 7.076 1.58333 7.20258 1.58333 7.34667V8.65333C1.58333 8.79742 1.69592 8.924 1.83942 8.94092L3.12508 9.10483C3.24058 9.11942 3.33625 9.20167 3.36833 9.31367C3.47333 9.67883 3.618 10.0271 3.79767 10.3485C3.85483 10.4506 3.8455 10.5772 3.77317 10.6693L2.97983 11.6902C2.88825 11.808 2.89642 11.9725 2.99908 12.0717L3.92367 12.9963C4.02575 13.1018 4.18967 13.11 4.30867 13.019L5.3295 12.2257C5.38258 12.186 5.44558 12.165 5.50917 12.165Z" stroke="#F2994A" stroke-width="0.2" mask="url(#path-1-outside-1_840_5627)"/>
<path d="M5.0335 7.99986C5.0335 9.63572 6.3643 10.9665 8.00016 10.9665C9.63603 10.9665 10.9668 9.63572 10.9668 7.99986C10.9668 6.36399 9.63603 5.03319 8.00016 5.03319C6.3643 5.03319 5.0335 6.36399 5.0335 7.99986ZM5.71683 7.99986C5.71683 6.74064 6.74094 5.71652 8.00016 5.71652C9.25938 5.71652 10.2835 6.74064 10.2835 7.99986C10.2835 9.25908 9.25938 10.2832 8.00016 10.2832C6.74094 10.2832 5.71683 9.25908 5.71683 7.99986Z" fill="#F2994A" stroke="#F2994A" stroke-width="0.1"/>
</svg>
