<svg width="11" height="13" viewBox="0 0 11 13" fill="none" xmlns="http://www.w3.org/2000/svg">
<path d="M9.63496 0.599609H1.36524C0.667869 0.599609 0.100098 1.15161 0.100098 1.83561V9.94761C0.100098 10.6316 0.667869 11.1836 1.36524 11.1836H8.36364L8.03655 10.0736L8.8265 10.7876L9.57324 11.4596L10.9001 12.5996V1.83561C10.9001 1.15161 10.3323 0.599609 9.63496 0.599609ZM7.25278 8.43561C7.25278 8.43561 7.03061 8.17761 6.84547 7.94961C7.65393 7.72761 7.9625 7.23561 7.9625 7.23561C7.70947 7.39761 7.46878 7.51161 7.25278 7.58961C6.94421 7.71561 6.64798 7.79961 6.35793 7.84761C5.76547 7.95561 5.22238 7.92561 4.75953 7.84161C4.40775 7.77561 4.10535 7.67961 3.85233 7.58361C3.71038 7.52961 3.5561 7.46361 3.40181 7.37961C3.3833 7.36761 3.36478 7.36161 3.34627 7.34961C3.33393 7.34361 3.32775 7.33761 3.32158 7.33161C3.2105 7.27161 3.14878 7.22961 3.14878 7.22961C3.14878 7.22961 3.44501 7.70961 4.22878 7.93761C4.04364 8.16561 3.8153 8.43561 3.8153 8.43561C2.45141 8.39361 1.93301 7.52361 1.93301 7.52361C1.93301 5.59161 2.8217 4.02561 2.8217 4.02561C3.71038 3.37761 4.55587 3.39561 4.55587 3.39561L4.61758 3.46761C3.50673 3.77961 2.9945 4.25361 2.9945 4.25361C2.9945 4.25361 3.13027 4.18161 3.35861 4.07961C4.01895 3.79761 4.54353 3.71961 4.75953 3.70161C4.79656 3.69561 4.82741 3.68961 4.86444 3.68961C5.2409 3.64161 5.66673 3.62961 6.11107 3.67761C6.69736 3.74361 7.32684 3.91161 7.96867 4.25361C7.96867 4.25361 7.48113 3.80361 6.43198 3.49161L6.51838 3.39561C6.51838 3.39561 7.36387 3.37761 8.25255 4.02561C8.25255 4.02561 9.14124 5.59161 9.14124 7.52361C9.14124 7.52361 8.61667 8.39361 7.25278 8.43561ZM4.38307 5.63361C4.0313 5.63361 3.75358 5.93361 3.75358 6.29961C3.75358 6.66561 4.03747 6.96561 4.38307 6.96561C4.73484 6.96561 5.01256 6.66561 5.01256 6.29961C5.01873 5.93361 4.73484 5.63361 4.38307 5.63361ZM6.63564 5.63361C6.28387 5.63361 6.00615 5.93361 6.00615 6.29961C6.00615 6.66561 6.29004 6.96561 6.63564 6.96561C6.98741 6.96561 7.26513 6.66561 7.26513 6.29961C7.26513 5.93361 6.98741 5.63361 6.63564 5.63361Z" fill="white"/>
</svg>
