<svg width="13" height="15" viewBox="0 0 13 15" fill="none" xmlns="http://www.w3.org/2000/svg">
<g clip-path="url(#clip0_2003_14612)">
<path d="M0.00941333 7.48434C0.00941333 6.24739 0.0443864 5.01566 -0.000578985 3.77871C-0.0605329 1.91023 1.36837 0.0104384 3.56168 0.00521921C5.16045 0 6.75922 0.00521921 8.353 0C8.6028 0 8.78267 0.0782881 8.95753 0.276618C10.2415 1.70146 11.5405 3.11065 12.8246 4.53027C12.9195 4.63466 12.9894 4.81733 12.9894 4.96347C12.9994 7.119 12.9994 9.27453 12.9944 11.4301C12.9894 13.2255 11.5505 14.8539 9.83686 14.9582C8.97252 15.0104 8.10818 14.9896 7.24385 14.9948C6.02978 15 4.81572 15 3.59665 14.9948C1.853 14.9843 0.494041 13.8779 0.0893519 12.1399C0.0343941 11.905 0.00941333 11.6597 0.00441717 11.4196C0.00441717 10.1096 0.00941333 8.79436 0.00941333 7.48434ZM8.01326 1.08038C7.88336 1.08038 7.79842 1.08038 7.71848 1.08038C6.33455 1.08038 4.95561 1.08038 3.57167 1.08038C2.09781 1.0856 1.01364 2.20772 1.00864 3.74739C1.00365 6.25261 1.00365 8.75783 1.00864 11.263C1.00864 11.4979 1.03363 11.7328 1.08858 11.9572C1.38336 13.142 2.32263 13.9144 3.49174 13.9196C5.45523 13.9301 7.42371 13.9248 9.3872 13.9248C10.921 13.9248 11.9902 12.8079 11.9902 11.1952C11.9902 9.37891 11.9902 7.55741 11.9902 5.74113C11.9902 5.64718 11.9902 5.55846 11.9902 5.42276C10.8061 5.51148 9.79189 5.17223 8.97752 4.28497C8.16814 3.40292 7.91833 2.31211 8.01326 1.08038ZM9.03247 1.88935C9.05746 3.38727 10.4664 4.41023 11.2358 4.31106C10.5063 3.50731 9.7819 2.71399 9.03247 1.88935Z" fill="#499287"/>
<path d="M6.49501 5.65194C5.7356 5.65194 4.98118 5.66237 4.22176 5.64672C4.06189 5.6415 3.84705 5.59452 3.75212 5.4797C3.64721 5.35966 3.59225 5.11958 3.63222 4.96822C3.66719 4.8273 3.85704 4.72292 3.99194 4.62375C4.05189 4.582 4.15182 4.60288 4.23675 4.60288C5.74059 4.60288 7.24943 4.60288 8.75328 4.60288C8.84321 4.60288 8.93813 4.60809 9.02806 4.62375C9.2479 4.67073 9.39778 4.86906 9.40777 5.10914C9.41277 5.34922 9.27787 5.56321 9.06304 5.62062C8.96811 5.64672 8.86819 5.65194 8.76826 5.65194C8.00885 5.65194 7.25443 5.65194 6.49501 5.65194Z" fill="#499287"/>
<path d="M6.49001 10.4017C5.7156 10.4017 4.9412 10.4017 4.16679 10.4017C3.92198 10.4017 3.72213 10.313 3.62721 10.0625C3.5073 9.74932 3.69715 9.41007 4.0219 9.3631C4.22675 9.337 4.43659 9.34222 4.64642 9.34222C6.01037 9.34222 7.37433 9.34222 8.73828 9.34744C8.81322 9.34744 8.88816 9.34744 8.9631 9.35788C9.23789 9.39963 9.41775 9.61362 9.40776 9.89024C9.40277 10.1616 9.2279 10.3704 8.95311 10.3861C8.52844 10.4069 8.10376 10.3965 7.67909 10.3965C7.28939 10.4017 6.8897 10.4017 6.49001 10.4017Z" fill="#499287"/>
<path d="M6.48002 8.02235C5.71561 8.02235 4.9462 8.02235 4.18179 8.02235C3.81707 8.02235 3.59224 7.81881 3.59724 7.50043C3.59724 7.18206 3.82207 6.97852 4.18179 6.97852C5.7306 6.97852 7.27941 6.97852 8.82821 6.97852C9.18794 6.97852 9.41276 7.18206 9.41276 7.50043C9.41276 7.81881 9.18794 8.02235 8.82821 8.02235C8.04382 8.02757 7.26442 8.02757 6.48002 8.02235C6.48002 8.02757 6.48002 8.02235 6.48002 8.02235Z" fill="#499287"/>
</g>
<defs>
<clipPath id="clip0_2003_14612">
<rect width="13" height="15" fill="white"/>
</clipPath>
</defs>
</svg>
