<svg width="24" height="24" viewBox="0 0 24 24" fill="none" xmlns="http://www.w3.org/2000/svg">
<path d="M3 3L21 21" stroke="#6B7280" stroke-width="1.5" stroke-linecap="round" stroke-linejoin="round"/>
<path d="M15.25 12C15.25 12.5394 14.9602 13.085 14.3784 13.5213C13.7964 13.9578 12.958 14.25 12 14.25C11.042 14.25 10.2036 13.9578 9.62157 13.5213C9.03978 13.085 8.75 12.5394 8.75 12C8.75 11.4606 9.03978 10.915 9.62157 10.4787C10.2036 10.0422 11.042 9.75 12 9.75C12.958 9.75 13.7964 10.0422 14.3784 10.4787C14.9602 10.915 15.25 11.4606 15.25 12Z" stroke="#6B7280" stroke-width="1.5"/>
<path d="M9.363 5.36506C10.2204 5.11978 11.1082 4.9969 12 5.00006C16 5.00006 19.333 7.33306 22 12.0001C21.222 13.3611 20.388 14.5241 19.497 15.4881M17.357 17.3491C15.726 18.4491 13.942 19.0001 12 19.0001C8 19.0001 4.667 16.6671 2 12.0001C3.369 9.60506 4.913 7.82506 6.632 6.65906" stroke="#6B7280" stroke-width="1.5" stroke-linecap="round" stroke-linejoin="round"/>
</svg>
