<svg width="19" height="21" viewBox="0 0 19 21" fill="none" xmlns="http://www.w3.org/2000/svg">
<path d="M6.60775 18.9443V16.0013C6.60775 15.25 7.22334 14.641 7.9827 14.641H10.7586C11.1232 14.641 11.4729 14.7843 11.7308 15.0394C11.9886 15.2945 12.1335 15.6405 12.1335 16.0013V18.9443C12.1312 19.2567 12.255 19.557 12.4774 19.7787C12.6999 20.0003 13.0025 20.125 13.3182 20.125H15.212C16.0965 20.1273 16.9455 19.7812 17.5718 19.1633C18.198 18.5453 18.55 17.7062 18.55 16.8311V8.44685C18.55 7.73999 18.2332 7.06949 17.6852 6.61599L11.2428 1.52552C10.1221 0.632991 8.51647 0.661808 7.42926 1.59397L1.13388 6.61599C0.55994 7.05613 0.216903 7.72861 0.199951 8.44685V16.8226C0.199951 18.6464 1.6944 20.125 3.53789 20.125H5.38845C6.04416 20.125 6.57706 19.6016 6.58181 18.9529L6.60775 18.9443Z" fill="#FBA845"/>
</svg>
