<svg width="19" height="21" viewBox="0 0 19 21" fill="none" xmlns="http://www.w3.org/2000/svg">
<path fill-rule="evenodd" clip-rule="evenodd" d="M10.6884 13.6679C11.7663 13.6679 12.6436 14.539 12.6436 15.6097V18.3635C12.6436 18.5936 12.8281 18.778 13.0644 18.7834H14.7708C16.1154 18.7834 17.2085 17.7037 17.2085 16.377V8.56678C17.2023 8.11021 16.9847 7.68048 16.6114 7.3949L10.709 2.68766C9.9167 2.06009 8.80837 2.06009 8.01339 2.68945L2.15128 7.39311C1.76363 7.68765 1.54609 8.11737 1.54161 8.582V16.377C1.54161 17.7037 2.63471 18.7834 3.97938 18.7834H5.70185C5.94446 18.7834 6.14142 18.5909 6.14142 18.3546C6.14142 18.3027 6.14768 18.2507 6.15842 18.2015V15.6097C6.15842 14.5453 7.0304 13.6751 8.10023 13.6679H10.6884ZM14.7708 20.1263H13.0483C12.0617 20.103 11.3008 19.3286 11.3008 18.3635V15.6097C11.3008 15.2794 11.0259 15.0108 10.6884 15.0108H8.1047C7.77436 15.0126 7.5013 15.2821 7.5013 15.6097V18.3546C7.5013 18.4217 7.49235 18.4862 7.47355 18.5471C7.37686 19.4334 6.61948 20.1263 5.70185 20.1263H3.97938C1.89434 20.1263 0.19873 18.4441 0.19873 16.377V8.57574C0.207683 7.68586 0.617709 6.87118 1.32585 6.33492L7.17633 1.63932C8.46459 0.618734 10.2596 0.618734 11.5452 1.63753L17.4377 6.33761C18.1297 6.86491 18.5398 7.6778 18.5514 8.55694V16.377C18.5514 18.4441 16.8558 20.1263 14.7708 20.1263Z" fill="#6B7280"/>
</svg>
