<svg width="21" height="19" viewBox="0 0 21 19" fill="none" xmlns="http://www.w3.org/2000/svg">
<path fill-rule="evenodd" clip-rule="evenodd" d="M15.2575 0C18.5021 0 20.9487 2.64733 20.9487 6.15795V12.8498C20.9487 14.6466 20.3134 16.2698 19.1588 17.4215C18.1231 18.4534 16.7794 19 15.2731 19H5.67272C4.16928 19 2.82662 18.4544 1.7899 17.4215C0.635282 16.2698 0 14.6466 0 12.8498V6.15795C0 2.64733 2.44662 0 5.69123 0H15.2575ZM15.2575 1.46154H5.69123C3.24072 1.46154 1.46154 3.43656 1.46154 6.15795V12.8498C1.46154 14.2558 1.94482 15.5118 2.82174 16.3858C3.57785 17.1409 4.56487 17.5385 5.67564 17.5385H15.2575C15.2594 17.5365 15.2672 17.5385 15.2731 17.5385C16.3848 17.5385 17.3709 17.1409 18.127 16.3858C19.0049 15.5118 19.4872 14.2558 19.4872 12.8498V6.15795C19.4872 3.43656 17.708 1.46154 15.2575 1.46154ZM16.7931 5.97165C17.0474 6.28442 16.9996 6.74432 16.6869 6.9996L12.3568 10.519C11.8092 10.9535 11.1545 11.1708 10.5007 11.1708C9.84882 11.1708 9.19892 10.9555 8.65523 10.5248L4.28523 7.00155C3.97051 6.74821 3.92179 6.28734 4.17415 5.9736C4.42846 5.66083 4.88836 5.61114 5.2021 5.8635L9.5682 9.38288C10.1168 9.81745 10.8894 9.81745 11.4419 9.37898L15.7642 5.86545C16.0779 5.60919 16.5378 5.65791 16.7931 5.97165Z" fill="#6B7280"/>
</svg>
