<svg width="20" height="20" viewBox="0 0 20 20" fill="none" xmlns="http://www.w3.org/2000/svg">
<path opacity="0.4" d="M15.1764 5.63686C15.108 5.62709 15.0396 5.62709 14.9712 5.63686C13.457 5.58801 12.2554 4.34732 12.2554 2.82331C12.2554 1.27 13.5156 0 15.0787 0C16.632 0 17.902 1.26023 17.902 2.82331C17.8922 4.34732 16.6906 5.58801 15.1764 5.63686Z" fill="#FFB34B"/>
<path opacity="0.4" d="M18.3619 12.4068C17.2677 13.1395 15.7339 13.413 14.3174 13.2274C14.6886 12.4264 14.884 11.5373 14.8938 10.5995C14.8938 9.62258 14.6789 8.6945 14.2686 7.88365C15.7144 7.68828 17.2482 7.9618 18.3521 8.6945C19.8956 9.7105 19.8956 11.381 18.3619 12.4068Z" fill="#FFB34B"/>
<path opacity="0.4" d="M4.34354 5.63686C4.41193 5.62709 4.48031 5.62709 4.5487 5.63686C6.06293 5.58801 7.26455 4.34732 7.26455 2.82331C7.26455 1.27 6.00431 0 4.44123 0C2.88792 0 1.61792 1.26023 1.61792 2.82331C1.62769 4.34732 2.82931 5.58801 4.34354 5.63686Z" fill="#FFB34B"/>
<path opacity="0.4" d="M4.44989 10.5997C4.44989 11.5473 4.65505 12.4461 5.02628 13.2569C3.64881 13.4035 2.21274 13.1104 1.15766 12.4168C-0.385885 11.391 -0.385885 9.72046 1.15766 8.69469C2.20297 7.9913 3.67812 7.70799 5.06536 7.8643C4.66482 8.68492 4.44989 9.613 4.44989 10.5997Z" fill="#FFB34B"/>
<path d="M9.89291 13.55C9.81476 13.5402 9.72684 13.5402 9.63891 13.55C7.84137 13.4914 6.40527 12.0162 6.40527 10.1991C6.40527 8.34297 7.89999 6.8385 9.76591 6.8385C11.6221 6.8385 13.1265 8.34297 13.1265 10.1991C13.1265 12.0162 11.7002 13.4914 9.89291 13.55Z" fill="#FFB34B"/>
<path d="M6.71794 15.5721C5.24278 16.5588 5.24278 18.1805 6.71794 19.1574C8.39827 20.2809 11.1532 20.2809 12.8335 19.1574C14.3087 18.1707 14.3087 16.549 12.8335 15.5721C11.163 14.4486 8.40804 14.4486 6.71794 15.5721Z" fill="#FFB34B"/>
</svg>
