<svg width="21" height="19" viewBox="0 0 21 19" fill="none" xmlns="http://www.w3.org/2000/svg">
<path d="M15.6859 0C17.094 0 18.4485 0.559444 19.4449 1.56328C20.4424 2.565 21 3.91611 21 5.33056V13.6694C21 16.6144 18.6165 19 15.6859 19H5.313C2.38245 19 0 16.6144 0 13.6694V5.33056C0 2.38556 2.37195 0 5.313 0H15.6859ZM16.8735 5.48889C16.653 5.47728 16.443 5.55222 16.2844 5.7L11.55 9.5C10.941 10.0077 10.0684 10.0077 9.45 9.5L4.725 5.7C4.39845 5.45722 3.94695 5.48889 3.675 5.77389C3.3915 6.05889 3.36 6.51278 3.60045 6.82944L3.738 6.96667L8.5155 10.7139C9.1035 11.1783 9.81645 11.4317 10.563 11.4317C11.3075 11.4317 12.033 11.1783 12.6199 10.7139L17.3565 6.90333L17.4405 6.81889C17.6915 6.51278 17.6915 6.06944 17.4289 5.76333C17.283 5.60606 17.0824 5.51 16.8735 5.48889Z" fill="#FBA845"/>
</svg>
