<svg width="14" height="13" viewBox="0 0 14 13" fill="none" xmlns="http://www.w3.org/2000/svg">
<path d="M13.5933 1.73333C13.5898 1.73333 13.5898 1.73333 13.5933 1.73333H9.87109V1.3C9.87109 0.581389 9.31738 0 8.64062 0H5.35938C4.6792 0 4.12891 0.581389 4.12891 1.3V1.73333H0.410156C0.181152 1.73333 0 1.93194 0 2.16667V11.7C0 12.415 0.550293 13 1.23047 13H12.7695C13.4463 13 14 12.415 14 11.7V2.17389C13.9829 1.88861 13.8188 1.73333 13.5933 1.73333ZM4.94922 1.3C4.94922 1.06167 5.13379 0.866667 5.35938 0.866667H8.64062C8.86621 0.866667 9.05078 1.06167 9.05078 1.3V1.73333H4.94922V1.3ZM13.019 2.6L11.7441 6.63722C11.6895 6.81417 11.5322 6.93333 11.3545 6.93333H9.04736V6.5C9.04736 6.26167 8.86279 6.06667 8.63721 6.06667H5.35596C5.13037 6.06667 4.9458 6.26167 4.9458 6.5V6.93333H2.64209C2.46436 6.93333 2.31055 6.81417 2.25244 6.63722L0.977539 2.6H13.019ZM8.23047 6.93333V7.8H5.76953V6.93333H8.23047ZM13.1797 11.7C13.1797 11.9383 12.9951 12.1333 12.7695 12.1333H1.23047C1.00488 12.1333 0.820312 11.9383 0.820312 11.7V4.83528L1.47314 6.90806C1.64062 7.43889 2.10889 7.79639 2.63867 7.79639H4.9458V8.22972C4.9458 8.46806 5.13037 8.66306 5.35596 8.66306H8.63721C8.86279 8.66306 9.04736 8.46806 9.04736 8.22972V7.79639H11.3545C11.8843 7.79639 12.3525 7.43889 12.52 6.90806L13.1729 4.83528V11.7H13.1797Z" fill="#D6A158"/>
</svg>
