<svg width="16" height="15" viewBox="0 0 16 15" fill="none" xmlns="http://www.w3.org/2000/svg">
<path d="M6.71107 11.4327L4.94355 13.2003C4.21078 13.933 3.0241 13.933 2.29194 13.2004C1.55963 12.4681 1.55963 11.2813 2.29179 10.5492L5.82744 7.0135C6.5596 6.28131 7.7464 6.28131 8.47856 7.0135C8.72263 7.25757 9.11838 7.25757 9.36245 7.0135C9.60652 6.76943 9.60652 6.37368 9.36245 6.12961C8.14211 4.90927 6.16389 4.90927 4.94355 6.12961L1.40793 9.66523C0.187591 10.8856 0.187591 12.8638 1.40793 14.0841C2.62812 15.3051 4.60649 15.3051 5.82747 14.0841L7.59499 12.3166C7.83906 12.0725 7.83906 11.6768 7.59499 11.4327C7.35092 11.1886 6.95514 11.1887 6.71107 11.4327Z" fill="#89969F"/>
<path d="M14.5771 0.915253C13.3568 -0.305084 11.3779 -0.305084 10.1576 0.915253L8.03697 3.03589C7.7929 3.27996 7.7929 3.67571 8.03697 3.91978C8.28104 4.16385 8.67679 4.16385 8.92086 3.91978L11.0415 1.79914C11.7737 1.06695 12.9611 1.06695 13.6933 1.79914C14.4254 2.53131 14.4254 3.7181 13.6933 4.45026L9.80449 8.33906C9.0723 9.07125 7.88553 9.07125 7.15337 8.33906C6.9093 8.09499 6.51355 8.09499 6.26948 8.33906C6.02541 8.58313 6.02541 8.97888 6.26948 9.22295C7.48982 10.4433 9.46804 10.4433 10.6884 9.22295L14.5771 5.33418C15.7975 4.11384 15.7975 2.13559 14.5771 0.915253Z" fill="#89969F"/>
</svg>
