<svg width="10" height="9" viewBox="0 0 10 9" fill="none" xmlns="http://www.w3.org/2000/svg">
<path d="M9.30005 5.44683V8.75625H7.36283V5.64863C7.36283 4.88181 7.08032 4.35715 6.39422 4.35715C5.86956 4.35715 5.54669 4.72038 5.42561 5.04325C5.38525 5.16432 5.34489 5.32576 5.34489 5.52755V8.75625H3.40767C3.40767 8.75625 3.44803 3.50961 3.40767 2.98495H5.34489V3.79212C5.58705 3.38854 6.07135 2.82351 7.08032 2.82351C8.33144 2.82351 9.30005 3.67105 9.30005 5.44683ZM1.38973 0.200195C0.743994 0.200195 0.300049 0.644142 0.300049 1.20916C0.300049 1.77419 0.703636 2.21813 1.34938 2.21813C2.03547 2.21813 2.43906 1.77419 2.43906 1.20916C2.47942 0.603783 2.07583 0.200195 1.38973 0.200195ZM0.421125 8.75625H2.35834V2.98495H0.421125V8.75625Z" fill="white"/>
</svg>
