<svg width="58" height="53" viewBox="0 0 58 53" fill="none" xmlns="http://www.w3.org/2000/svg">
<path d="M28.5357 0C26.5838 0 24.619 0.397091 23.051 1.2635L2.62727 12.5576C1.84331 12.9908 1.20752 13.5062 0.747909 14.1305C0.288303 14.7549 0 15.5363 0 16.3739C0 17.2116 0.288306 17.9929 0.747909 18.6173C1.20752 19.2416 1.84331 19.757 2.62727 20.1902L4.87101 21.4279L2.62727 22.6656C1.84314 23.0989 1.22669 23.6134 0.767087 24.2385C0.307483 24.8637 0 25.6441 0 26.4819C0 27.32 0.307488 28.1003 0.767087 28.7254C1.22669 29.3505 1.84314 29.865 2.62727 30.2983L4.87101 31.5359L2.62727 32.7735C1.84313 33.207 1.22669 33.7216 0.767087 34.3467C0.307486 34.9718 0 35.7521 0 36.5899C0 37.4277 0.307486 38.208 0.767087 38.8334C1.22669 39.4582 1.84313 39.9728 2.62727 40.4063L23.051 51.7005C26.1865 53.4332 30.8463 53.4332 33.9821 51.7005L54.444 40.4063C55.2281 39.9728 55.8446 39.4582 56.3042 38.8334C56.7638 38.208 57.0712 37.4277 57.0712 36.5899C57.0712 35.7521 56.7638 34.9718 56.3042 34.3467C55.8446 33.7216 55.2281 33.207 54.444 32.7735L52.1812 31.5359L54.444 30.2983C55.2281 29.865 55.8446 29.3505 56.3042 28.7254C56.7638 28.1003 57.0712 27.32 57.0712 26.4819C57.0712 25.6441 56.7638 24.8637 56.3042 24.2385C55.8446 23.6134 55.2281 23.0989 54.444 22.6656L52.1812 21.4279L54.4249 20.1902C55.2087 19.757 55.8446 19.2416 56.3042 18.6173C56.7638 17.9929 57.0521 17.2116 57.0521 16.3739C57.0521 15.5363 56.7638 14.7549 56.3042 14.1305C55.8446 13.5062 55.2087 12.9908 54.4249 12.5576L34.0011 1.2635C32.4332 0.397091 30.4874 0 28.5357 0ZM6.88461 22.5625L23.051 31.4844C26.1865 33.2171 30.8463 33.2171 33.9821 31.4844L38.3545 29.0606L50.1866 22.5625L53.8496 24.5738C54.4993 24.9329 54.9538 25.3326 55.211 25.6827C55.4684 26.0328 55.537 26.2837 55.537 26.4819C55.537 26.68 55.4684 26.9312 55.211 27.2813C54.9538 27.6314 54.4993 28.0309 53.8496 28.3901L33.4067 39.6843C32.4315 40.223 31.1785 40.5809 29.8588 40.7157C27.6592 40.9402 25.2706 40.5821 23.6455 39.6843L3.20259 28.3901C2.55275 28.0309 2.0984 27.6314 1.84101 27.2813C1.58362 26.9312 1.53417 26.68 1.53417 26.4819C1.53417 26.2837 1.58363 26.0328 1.84101 25.6827C2.09839 25.3326 2.55275 24.9329 3.20259 24.5738L6.88461 22.5625ZM6.88461 32.6706L23.051 41.5925C25.0108 42.6751 27.5676 43.1008 29.974 42.8301C31.4176 42.6676 32.8062 42.2422 33.9821 41.5925L50.1866 32.6706L53.8496 34.6817C54.4993 35.0409 54.9538 35.4404 55.211 35.7905C55.4684 36.1406 55.537 36.3918 55.537 36.5899C55.537 36.7881 55.4684 37.0392 55.211 37.3893C54.9538 37.7394 54.4993 38.139 53.8496 38.4981L33.4067 49.7923C30.8063 51.2291 26.2458 51.2291 23.6455 49.7923L3.20259 38.4981C2.55275 38.139 2.09839 37.7394 1.84101 37.3893C1.58362 37.0392 1.53417 36.7881 1.53417 36.5899C1.53417 36.3918 1.58362 36.1406 1.84101 35.7905C2.09839 35.4404 2.55275 35.0409 3.20259 34.6817L6.88461 32.6706Z" fill="#5ED6D5"/>
<path d="M28.6421 22.2482C27.6551 22.4513 26.6161 22.3933 25.5251 22.1032C24.4342 21.8132 23.3953 21.2911 22.4083 20.508C20.9538 19.3478 20.1745 18.1296 20.0187 16.8824C19.8888 15.6642 20.4343 14.591 21.681 13.6339L24.8758 16.0413C24.4342 16.4473 24.2005 16.8534 24.2005 17.2885C24.2005 17.7235 24.4342 18.1296 24.9017 18.4776C25.3174 18.7967 25.759 18.9417 26.2266 18.9707C26.694 18.9707 27.1096 18.8547 27.4991 18.5647C27.8369 18.3036 28.0188 18.0136 28.0188 17.6945C28.0188 17.3755 27.9406 17.0274 27.7588 16.6794C27.577 16.3313 27.2914 15.8962 26.9278 15.3452C26.4084 14.562 26.0186 13.8949 25.759 13.3438C25.5251 12.7927 25.4732 12.2417 25.6291 11.6326C25.7848 11.0525 26.2525 10.4724 27.0318 9.9503C27.7588 9.45723 28.5381 9.16718 29.4211 9.05115C30.3044 8.93515 31.2133 9.02217 32.1486 9.2542C33.0836 9.48624 33.9925 9.92129 34.8757 10.4724C36.3301 11.4005 37.2134 12.4157 37.4989 13.4599C37.7847 14.533 37.447 15.5482 36.46 16.5053L32.8756 14.069C33.2134 13.7209 33.3691 13.3728 33.3433 13.0248C33.3171 12.6767 33.0836 12.3577 32.6679 12.0676C32.3043 11.8356 31.9148 11.6906 31.4991 11.6616C31.0835 11.6326 30.7198 11.7486 30.3561 12.0096C30.0706 12.2127 29.9146 12.4447 29.9146 12.7347C29.9146 13.0248 29.9927 13.3148 30.1746 13.6049C30.3561 13.9239 30.642 14.33 31.0315 14.9101C31.6289 15.7222 32.0446 16.4183 32.3563 16.9984C32.6421 17.6075 32.7458 18.2456 32.6421 18.9707C32.5381 19.6958 32.0446 20.3919 31.1874 21.0591C30.4862 21.6971 29.6291 22.0742 28.6421 22.2482Z" fill="white"/>
</svg>
