<svg width="20" height="21" viewBox="0 0 20 21" fill="none" xmlns="http://www.w3.org/2000/svg">
<path d="M6.83946 0.959539H6.96629C11.2983 0.959539 13.3863 2.66698 13.7473 6.49164C13.7863 6.89167 13.4936 7.25267 13.0838 7.29169C12.6935 7.33072 12.3228 7.02826 12.2837 6.62823C12.0008 3.5646 10.5568 2.42306 6.95654 2.42306H6.8297C2.85869 2.42306 1.45371 3.82804 1.45371 7.79905L1.45371 14.1605C1.45371 18.1315 2.85869 19.5365 6.8297 19.5365H6.95654C10.5763 19.5365 12.0203 18.3754 12.2837 15.2533C12.3325 14.8532 12.674 14.5508 13.0838 14.5898C13.4936 14.6191 13.7863 14.9801 13.757 15.3801C13.4253 19.2633 11.3276 21 6.96629 21H6.83946C2.04887 21 -5.14984e-05 18.9511 -5.14984e-05 14.1605L-5.14984e-05 7.79905C-5.14984e-05 3.00846 2.04887 0.959539 6.83946 0.959539Z" fill="#F9373F"/>
<path d="M7.07497 10.2479L18.1782 10.2479C18.5782 10.2479 18.9099 10.5796 18.9099 10.9797C18.9099 11.3797 18.5782 11.7114 18.1782 11.7114L7.07497 11.7114C6.67494 11.7114 6.34321 11.3797 6.34321 10.9797C6.34321 10.5796 6.67494 10.2479 7.07497 10.2479Z" fill="#F9373F"/>
<path d="M16.0022 6.97892C16.1875 6.97892 16.3729 7.04721 16.5193 7.19356L19.7878 10.4621C20.0707 10.745 20.0707 11.2134 19.7878 11.4963L16.5193 14.7648C16.2363 15.0478 15.768 15.0478 15.485 14.7648C15.2021 14.4819 15.2021 14.0136 15.485 13.7306L18.2365 10.9792L15.485 8.22778C15.2021 7.94484 15.2021 7.47651 15.485 7.19356C15.6216 7.04721 15.8168 6.97892 16.0022 6.97892Z" fill="#F9373F"/>
</svg>
