<svg width="14" height="14" viewBox="0 0 14 14" fill="none" xmlns="http://www.w3.org/2000/svg">
<path d="M4.67056 8.77603C4.67056 8.61984 4.67056 8.5157 4.67056 8.41157C4.67056 6.36942 4.67639 4.32727 4.66473 2.27934C4.66473 2.03636 4.72304 1.9438 4.98543 1.88595C7.93003 1.27273 10.8805 0.642149 13.8309 0.0115702C13.8776 0 13.9242 0.00578512 14 0C14 0.104132 14 0.202479 14 0.295041C14 3.49422 14 6.69339 14 9.89256C14 11.605 12.6647 12.8893 10.9446 12.843C9.41691 12.8025 8.16327 11.4893 8.16327 9.93884C8.16327 8.39422 9.42858 7.08678 10.9563 7.05207C11.586 7.0405 11.8367 7.10992 12.7988 7.57273C12.7988 5.52479 12.7988 3.49422 12.7988 1.41736C10.4781 1.90909 8.1691 2.40083 5.83091 2.89835C5.83091 3.00826 5.83091 3.1124 5.83091 3.21653C5.83091 5.82562 5.83091 8.4405 5.83091 11.0496C5.83091 12.7504 4.4898 14.0463 2.77552 13.9942C1.15452 13.9422 -0.110782 12.5132 5.56046e-06 10.8587C0.145778 8.77603 2.51312 7.5438 4.36152 8.58512C4.44898 8.64298 4.53062 8.68926 4.67056 8.77603ZM11.0787 8.21488C10.1225 8.21488 9.34111 8.99587 9.33528 9.94463C9.33528 10.8876 10.1225 11.6744 11.0729 11.6802C12.0408 11.686 12.8338 10.8934 12.828 9.93306C12.8222 8.99587 12.0292 8.21488 11.0787 8.21488ZM1.17202 11.0959C1.16619 12.0446 1.94753 12.8314 2.89796 12.8372C3.86589 12.843 4.66473 12.062 4.66473 11.1017C4.66473 10.1587 3.87173 9.3719 2.92129 9.3719C1.96502 9.3719 1.17785 10.1529 1.17202 11.0959Z" fill="#2FD088"/>
</svg>
