<svg width="14" height="18" viewBox="0 0 14 18" fill="none" xmlns="http://www.w3.org/2000/svg">
<path d="M11.1667 8.1665H2.83341C1.91294 8.1665 1.16675 8.9127 1.16675 9.83317V14.8332C1.16675 15.7536 1.91294 16.4998 2.83341 16.4998H11.1667C12.0872 16.4998 12.8334 15.7536 12.8334 14.8332V9.83317C12.8334 8.9127 12.0872 8.1665 11.1667 8.1665Z" stroke="#FB923C" stroke-width="1.5" stroke-linecap="round" stroke-linejoin="round"/>
<path d="M7.00008 13.1667C7.46032 13.1667 7.83341 12.7936 7.83341 12.3333C7.83341 11.8731 7.46032 11.5 7.00008 11.5C6.53984 11.5 6.16675 11.8731 6.16675 12.3333C6.16675 12.7936 6.53984 13.1667 7.00008 13.1667Z" stroke="#FB923C" stroke-width="2" stroke-linecap="round" stroke-linejoin="round"/>
<path d="M3.66675 8.16667V4.83333C3.66675 3.94928 4.01794 3.10143 4.64306 2.47631C5.26818 1.85119 6.11603 1.5 7.00008 1.5C7.88414 1.5 8.73198 1.85119 9.3571 2.47631C9.98223 3.10143 10.3334 3.94928 10.3334 4.83333V8.16667" stroke="#FB923C" stroke-width="1.5" stroke-linecap="round" stroke-linejoin="round"/>
</svg>
