<svg width="20" height="22" viewBox="0 0 20 22" fill="none" xmlns="http://www.w3.org/2000/svg">
<path fill-rule="evenodd" clip-rule="evenodd" d="M5.8461 4.61037C5.69685 4.28389 5.56286 3.95747 5.44423 3.62691C5.26608 3.1311 5.15529 2.6131 5.00442 2.10999C4.94024 1.89659 4.7642 1.34259 4.75296 1.25913C4.6587 0.530845 5.19731 0.271215 5.35813 0.207535C5.43534 0.174494 6.23511 -0.138583 6.65799 0.728118C7.17577 1.78763 7.54731 2.89454 7.76554 4.01785C8.1969 4.90699 8.75517 5.75798 9.3885 6.49417C11.9082 9.422 15.0807 8.92194 18.4149 7.99561C18.9269 7.85019 19.4618 8.13921 19.6256 8.64297C19.7905 9.15057 19.5272 9.69876 19.0278 9.88198C17.2079 10.5632 14.2946 12.9497 13.5665 14.8166C13.4143 15.2074 13.4859 16.0323 13.5084 16.854C13.5382 17.9948 13.5161 19.1372 13.2925 19.6748C13.2595 19.7577 12.8231 20.6323 12.6642 20.7861C12.2813 21.1522 11.884 21.1063 11.645 21.0303C11.406 20.9544 11.1061 20.7588 10.8997 20.3571C10.6838 19.9373 10.5203 19.0011 10.4528 18.8091C10.2078 18.113 9.69196 16.7565 9.08072 15.6356C8.75142 15.032 8.42511 14.4812 8.07 14.2593C6.75545 13.438 5.16589 14.0369 3.83927 14.5859C3.68652 14.6474 3.5348 14.7128 3.38243 14.7742C2.86694 15.0894 2.30552 15.3716 1.69694 15.6129C0.778233 15.9784 0.388584 15.1481 0.36469 15.0928C0.313047 14.9707 0.0723459 14.3352 0.717316 13.8824C0.7881 13.8346 1.32964 13.5536 1.53794 13.4443C1.82829 13.2923 2.12622 13.1549 2.42634 13.0209C5.39493 11.1467 6.39608 7.84776 5.8461 4.61037ZM7.89331 7.80485C9.79315 10.0052 11.9757 10.7298 14.3231 10.6938L14.3227 10.6939C13.1421 11.7803 12.134 13.0139 11.714 14.0941C11.5543 14.5034 11.5081 15.2528 11.5071 16.0807C11.2021 15.3925 10.8451 14.6687 10.4691 14.0694C10.0408 13.3853 9.56737 12.8493 9.12509 12.5725C8.27154 12.0394 7.33335 11.8667 6.38608 11.9105C7.20293 10.6746 7.69805 9.27366 7.89331 7.80485Z" fill="#FFB9AA"/>
</svg>
