<svg width="15" height="18" viewBox="0 0 15 18" fill="none" xmlns="http://www.w3.org/2000/svg">
<path d="M7.08358 6.50002C7.08358 5.35002 8.01691 4.41669 9.16691 4.41669C10.0836 4.41669 10.8586 5.00835 11.1419 5.82502C11.2086 6.04169 11.2502 6.26669 11.2502 6.50002C11.2502 7.65002 10.3169 8.58335 9.16691 8.58335C8.25858 8.58335 7.50024 8.00835 7.20024 7.20002C7.12524 6.98335 7.08358 6.74169 7.08358 6.50002ZM1.66691 6.50002C1.66691 10.25 5.90024 15.3834 6.66691 16.3417L5.83358 17.3334C5.83358 17.3334 0.000244141 10.875 0.000244141 6.50002C0.000244141 3.85835 1.75858 1.62502 4.16691 0.908354C2.63358 2.28335 1.66691 4.27502 1.66691 6.50002ZM9.16691 0.666687C12.3836 0.666687 15.0002 3.27502 15.0002 6.50002C15.0002 10.875 9.16691 17.3334 9.16691 17.3334C9.16691 17.3334 3.33358 10.875 3.33358 6.50002C3.33358 3.27502 5.95024 0.666687 9.16691 0.666687ZM9.16691 2.33335C6.86691 2.33335 5.00024 4.20002 5.00024 6.50002C5.00024 7.33335 5.00024 9.00002 9.16691 14.5917C13.3336 9.00002 13.3336 7.33335 13.3336 6.50002C13.3336 4.20002 11.4669 2.33335 9.16691 2.33335Z" fill="#34A853"/>
</svg>
