<svg width="12" height="14" viewBox="0 0 12 14" fill="currentColor" xmlns="http://www.w3.org/2000/svg">
<path d="M5.66667 4.99998C5.66667 4.07998 6.41333 3.33331 7.33333 3.33331C8.06667 3.33331 8.68667 3.80665 8.91333 4.45998C8.96667 4.63331 9 4.81331 9 4.99998C9 5.91998 8.25333 6.66665 7.33333 6.66665C6.60667 6.66665 6 6.20665 5.76 5.55998C5.7 5.38665 5.66667 5.19331 5.66667 4.99998ZM1.33333 4.99998C1.33333 7.99998 4.72 12.1066 5.33333 12.8733L4.66667 13.6666C4.66667 13.6666 0 8.49998 0 4.99998C0 2.88665 1.40667 1.09998 3.33333 0.526646C2.10667 1.62665 1.33333 3.21998 1.33333 4.99998ZM7.33333 0.333313C9.90667 0.333313 12 2.41998 12 4.99998C12 8.49998 7.33333 13.6666 7.33333 13.6666C7.33333 13.6666 2.66667 8.49998 2.66667 4.99998C2.66667 2.41998 4.76 0.333313 7.33333 0.333313ZM7.33333 1.66665C5.49333 1.66665 4 3.15998 4 4.99998C4 5.66665 4 6.99998 7.33333 11.4733C10.6667 6.99998 10.6667 5.66665 10.6667 4.99998C10.6667 3.15998 9.17333 1.66665 7.33333 1.66665Z" fill="currentColor"/>
</svg>
