<svg width="19" height="19" viewBox="0 0 19 19" fill="none" xmlns="http://www.w3.org/2000/svg">
<g clip-path="url(#clip0_2003_14584)">
<path d="M9.49414 18.9999C9.40618 18.9999 9.31821 18.9823 9.24784 18.9588C8.9429 18.8353 8.64383 18.6884 8.35062 18.5473C8.23334 18.4885 8.11019 18.4297 7.9929 18.3709C7.88148 18.318 7.73488 18.2298 7.6821 18.0829C7.65278 17.9888 7.66451 17.8889 7.71729 17.7772C7.80525 17.6067 7.94013 17.5714 8.03395 17.5714C8.14537 17.5714 8.25093 17.6184 8.32716 17.6537C8.53241 17.7537 8.73766 17.8536 8.95463 17.9535L9.08951 18.0182C9.09537 17.977 9.09537 17.9477 9.09537 17.9183C9.09537 17.4186 9.09537 16.9189 9.09537 16.4251C9.09537 15.3551 9.09537 14.2499 9.09537 13.1565C9.09537 13.0095 9.07192 12.9684 8.96636 12.9155C8.0926 12.504 7.2071 12.0807 6.35093 11.6751C5.97562 11.4987 5.60618 11.3165 5.23087 11.1401C5.21914 11.1342 5.21327 11.1342 5.20155 11.1283C5.20155 11.1813 5.19568 11.2283 5.19568 11.2753C5.19568 11.7045 5.19568 12.1395 5.19568 12.5686C5.19568 13.6738 5.19568 14.8202 5.18982 15.9489C5.18982 16.1253 5.23087 16.1899 5.38334 16.2605C5.7821 16.4368 6.18087 16.6308 6.5679 16.8189C6.72037 16.8954 6.87284 16.9659 7.02531 17.0423C7.0429 17.0482 7.0605 17.0541 7.07809 17.06C7.1426 17.0835 7.21883 17.1129 7.25988 17.1893L7.26574 17.2011C7.33025 17.3304 7.41235 17.495 7.3713 17.642C7.33025 17.7772 7.10155 17.8477 6.98426 17.8477C6.94321 17.8477 6.90803 17.8418 6.87871 17.8301C6.15155 17.5009 5.39507 17.1364 4.62686 16.7543C4.49784 16.6896 4.40402 16.478 4.40402 16.3369C4.39815 14.9554 4.39815 13.5504 4.39815 12.1924C4.39815 11.6516 4.39815 11.1166 4.39815 10.5757C4.39815 10.2877 4.57994 10.1642 4.76173 10.0761C4.9963 9.96436 5.225 9.85266 5.45371 9.74097C5.87006 9.54109 6.29229 9.33534 6.72037 9.14134C6.86698 9.07668 6.90803 9.01201 6.90216 8.85328C6.89044 8.60638 6.8963 8.35947 6.8963 8.10081C6.8963 8.02439 6.8963 7.94796 6.8963 7.86566H6.56204C6.45648 7.86566 6.35093 7.86566 6.24537 7.86566C6.21605 7.86566 6.1926 7.86566 6.16327 7.86566C6.13395 7.86566 6.10463 7.87154 6.07531 7.87154C6.01667 7.87154 5.94044 7.86566 5.87593 7.83039C5.76451 7.7716 5.59445 7.62463 5.59445 7.47179C5.59445 7.3307 5.76451 7.10731 5.91698 7.09555C6.16914 7.08379 6.43303 7.07203 6.70278 7.07203C6.90803 7.07203 7.11914 7.07791 7.33611 7.08379C7.50031 7.08967 7.69969 7.17785 7.69969 7.57172C7.69969 7.85978 7.69969 8.14784 7.69969 8.45941V8.67692C7.78179 8.64165 7.86389 8.60638 7.94013 8.57111C8.22161 8.44765 8.4855 8.33008 8.72593 8.18311C9.01328 8.00675 9.2713 7.92445 9.52346 7.92445C9.76976 7.92445 10.0043 8.00675 10.233 8.17723C10.233 8.17723 10.2389 8.17723 10.2389 8.18311C10.2448 8.14784 10.2448 8.11257 10.2448 8.08317C10.2448 7.56585 10.2448 7.04852 10.2448 6.53707C10.2448 5.2026 10.2448 3.82698 10.2506 2.469C10.2506 2.37494 10.2389 2.31028 10.2154 2.28676C10.1978 2.26913 10.1451 2.25737 10.0688 2.25737C10.0571 2.25737 10.0512 2.25737 10.0395 2.25737C9.8284 2.26325 9.59383 2.26913 9.30648 2.26913C9.14229 2.26913 8.97223 2.26913 8.80216 2.26913C8.66729 2.26913 8.52655 2.26913 8.38581 2.26913C8.38581 2.34555 8.38581 2.41609 8.38581 2.48664C8.38581 2.73354 8.38581 2.96281 8.38581 3.19796C8.37994 3.60947 8.26266 3.72705 7.85803 3.73292C7.25402 3.73292 6.70865 3.7388 6.19846 3.7388C5.87006 3.7388 5.54753 3.7388 5.21914 3.7388C4.79692 3.7388 4.67963 3.62123 4.67963 3.1862C4.67963 2.29852 4.67963 1.42847 4.67963 0.599571C4.67963 0.123395 4.78519 0.0175781 5.24846 0.0175781C5.7 0.0175781 6.15155 0.0175781 6.60309 0.0175781C7.01945 0.0175781 7.44167 0.0175781 7.85803 0.0175781C8.26266 0.0175781 8.38581 0.141031 8.39167 0.552541C8.39167 0.781811 8.39167 1.01108 8.39167 1.25211C8.39167 1.32853 8.39167 1.39908 8.39167 1.48138C8.46204 1.48726 8.52655 1.48726 8.59105 1.48726C8.80216 1.48726 9.01328 1.48726 9.22439 1.48726H9.98673C10.1451 1.48726 10.3093 1.48726 10.4676 1.48726C10.9015 1.48726 11.0247 1.61071 11.0247 2.05161V3.25087C11.0247 4.90867 11.0306 6.62525 11.0188 8.31244C11.0188 8.52408 11.0716 8.60638 11.2534 8.6828C11.5525 8.80625 11.8398 8.94734 12.1448 9.09431C12.221 9.12958 12.2972 9.17074 12.3793 9.20601V8.03614C12.3793 7.17197 12.3793 6.3078 12.3793 5.44363C12.3793 4.92042 12.4966 4.80873 13.0244 4.80285C13.3059 4.80285 13.5873 4.80285 13.8747 4.80285H15.2821V4.58534C15.2821 4.34431 15.2821 4.12092 15.2821 3.89165C15.2821 3.46838 15.417 3.33317 15.8275 3.33317C16.1676 3.33317 16.5019 3.33317 16.842 3.33317C17.3991 3.33317 17.9503 3.33317 18.4664 3.33905C18.8651 3.33905 19 3.47426 19 3.87401C19 4.90279 19 5.7552 19 6.54883C19 6.92507 18.8593 7.06615 18.4781 7.06615C18.1086 7.06615 17.7333 7.06615 17.3639 7.06615C16.8478 7.06615 16.3259 7.06615 15.8099 7.06615C15.4111 7.06615 15.288 6.93682 15.288 6.52531C15.288 6.29604 15.288 6.06677 15.288 5.83163C15.288 5.76108 15.288 5.69641 15.288 5.62587H13.1944C13.1886 5.68466 13.1827 5.73757 13.1827 5.79047C13.1827 6.15495 13.1827 6.51356 13.1827 6.87804C13.1827 7.69518 13.1827 8.54171 13.1769 9.37649C13.1769 9.55873 13.2179 9.6234 13.3704 9.68806C13.5346 9.75273 13.6929 9.83503 13.8512 9.91145C13.9744 9.97024 14.0975 10.0349 14.2265 10.0878C14.4846 10.1995 14.6077 10.3935 14.596 10.6816C14.5901 10.9108 14.5901 11.146 14.5901 11.3753C14.5901 11.5046 14.5901 11.6339 14.5901 11.7632C14.5901 12.0866 14.4553 12.2512 14.2031 12.2571H14.1914C13.7926 12.2571 13.7926 11.8749 13.7926 11.7515C13.7926 11.581 13.7926 11.4164 13.7926 11.2342V11.146C13.7691 11.1577 13.7457 11.1636 13.7222 11.1754L13.2648 11.3929C12.2093 11.8985 11.1185 12.4158 10.0512 12.939C9.98673 12.9684 9.9105 13.0801 9.9105 13.1271C9.89877 14.5439 9.89877 15.99 9.90463 17.3833V18.0358C9.94568 18.0182 9.98087 18.0064 10.0161 17.9888C10.3796 17.8124 10.7491 17.642 11.1127 17.4656C11.9395 17.0717 12.7957 16.6602 13.6401 16.2605C13.7633 16.2017 13.7985 16.1488 13.7985 16.0136C13.7926 15.2199 13.7926 14.4087 13.7926 13.6268V13.2741C13.7926 13.2564 13.7926 13.2388 13.7926 13.2212C13.7926 13.1212 13.7867 13.0154 13.8454 12.9214C13.9157 12.8155 14.0506 12.6921 14.1914 12.6803C14.1972 12.6803 14.2031 12.6803 14.209 12.6803C14.3497 12.6803 14.4787 12.8273 14.5315 12.9096C14.5901 12.9978 14.5843 13.1095 14.5843 13.1977V13.2329C14.5843 13.5739 14.5843 13.9149 14.5843 14.2617C14.5843 14.9084 14.5843 15.5785 14.5901 16.2311C14.596 16.5368 14.4728 16.7308 14.1972 16.8601C13.5287 17.1717 12.8543 17.495 12.2034 17.8066C11.4176 18.1828 10.6083 18.5708 9.80494 18.947C9.71698 18.9764 9.60556 18.9999 9.49414 18.9999ZM8.88426 8.98849C8.49136 9.17661 8.12192 9.35297 7.75247 9.53521C7.74074 9.54697 7.71142 9.61752 7.70556 9.6763C7.69969 9.788 7.70556 9.90557 7.71142 10.0173C7.71729 10.2054 7.72315 10.4053 7.69383 10.5993C7.58241 11.2577 7.81698 11.6339 8.46204 11.8162C8.64969 11.8691 8.81976 11.9572 9.00155 12.0513C9.03087 12.0689 9.06019 12.0807 9.08951 12.0983V8.88856C9.01914 8.92383 8.95463 8.95322 8.88426 8.98849ZM9.9105 12.0925C10.2448 11.9984 10.2448 11.9572 10.2448 11.5869C10.2448 11.0696 10.2448 10.5522 10.2448 10.0349V9.41764C10.2448 9.03552 10.233 8.97674 9.90463 8.90619V12.0925H9.9105ZM11.0599 11.5575L11.7753 11.2165C12.1154 11.0519 12.3031 10.9637 12.3676 10.852C12.4321 10.7345 12.4145 10.5346 12.3793 10.1584C12.3735 10.1172 12.3676 10.0878 12.3617 10.0702C11.9864 9.88206 11.6111 9.69982 11.2123 9.50582L11.0599 9.4294V11.5575ZM6.8963 11.0578V9.93497L5.72932 10.4934L6.8963 11.0578ZM13.2003 10.5287L13.259 10.4993L13.2003 10.4699V10.5287ZM18.2025 6.23138C18.2201 6.10792 18.2318 5.99623 18.2142 5.97271C18.1849 5.95508 18.0383 5.95508 17.8917 5.95508H16.0796V6.23726H18.2025V6.23138ZM16.842 5.16145C17.2349 5.16145 17.704 5.16145 18.1614 5.15557C18.1732 5.14969 18.1907 5.13206 18.2025 5.1203C18.2083 4.83812 18.2083 4.55594 18.2083 4.27965C18.2083 4.23262 18.2083 4.17971 18.2083 4.13268H16.0738V5.15557L16.842 5.16145ZM7.6 2.92166C7.61173 2.78645 7.6176 2.67476 7.6 2.65124C7.57655 2.62773 7.41821 2.62773 7.30093 2.62773H7.28334C7.125 2.62773 6.96081 2.62773 6.80247 2.62773C6.63827 2.62773 6.47408 2.62773 6.31574 2.62773C6.0284 2.62773 5.79969 2.62773 5.58272 2.62185H5.57099C5.48303 2.62185 5.46544 2.63948 5.45957 2.64536C5.45371 2.65712 5.44198 2.68651 5.45371 2.7453C5.45957 2.80409 5.46544 2.86288 5.46544 2.92166H7.6ZM7.60587 1.81646C7.60587 1.76943 7.60587 1.71653 7.60587 1.6695C7.60587 1.3932 7.60587 1.11102 7.6 0.828841C7.58241 0.811204 7.54723 0.793568 7.52963 0.793568C7.20124 0.78769 6.87284 0.78769 6.55618 0.78769C6.21605 0.78769 5.87593 0.78769 5.54753 0.793568C5.52994 0.793568 5.48889 0.822962 5.46544 0.846477C5.45371 1.1169 5.45371 1.38144 5.45371 1.66362C5.45371 1.71653 5.45371 1.76943 5.45371 1.82234H7.60587V1.81646Z" fill="#E28C91"/>
<path d="M2.13457 9.33556C1.59506 9.33556 1.04969 9.33556 0.521914 9.32968C0.146605 9.32968 0.0058642 9.18859 0 8.81236C0 7.88352 0 6.97232 0 6.11403C0 5.74367 0.146605 5.60258 0.527778 5.5967C1.02037 5.5967 1.51296 5.59082 2.00556 5.59082C2.39846 5.59082 2.79722 5.59082 3.19012 5.59082C3.5713 5.59082 3.70617 5.72603 3.71204 6.10815C3.7179 6.3433 3.71204 6.57844 3.71204 6.83123C3.71204 6.90765 3.71204 6.98408 3.71204 7.06638H4.66204C4.80278 7.06638 5.17809 7.06638 5.18982 7.45437C5.18982 7.57195 5.16049 7.67189 5.09012 7.74243C4.9787 7.85413 4.81451 7.87176 4.66204 7.87176C4.51543 7.87176 3.92901 7.87176 3.92901 7.87176H3.71204C3.71204 7.94231 3.71204 8.01285 3.71204 8.0834C3.71204 8.3303 3.71204 8.55957 3.71204 8.79472C3.70617 9.19447 3.5713 9.33556 3.18426 9.33556C2.83827 9.33556 2.48642 9.33556 2.13457 9.33556ZM2.92037 8.51842V8.25388H0.809259V8.51842H2.92037ZM0.844444 7.42498C1.30185 7.43086 1.75926 7.43086 2.15216 7.43086H2.91451V6.41384H0.785802C0.785802 6.46675 0.785802 6.51966 0.785802 6.57257C0.785802 6.84887 0.785802 7.11341 0.791667 7.37207C0.797531 7.39559 0.826852 7.4191 0.844444 7.42498Z" fill="#E28C91"/>
<path d="M2.02901 7.31314C1.99969 7.31314 1.97037 7.30726 1.94105 7.30726C1.92932 7.30726 1.91173 7.30726 1.9 7.30138H1.87655H1.72994H1.64198C1.37222 7.30138 1.20803 7.15441 1.20803 6.91926C1.20803 6.80757 1.24321 6.70763 1.31358 6.64296C1.38982 6.56654 1.50124 6.52539 1.63611 6.52539H1.72994C1.78858 6.52539 1.84722 6.52539 1.90587 6.52539C1.97037 6.52539 2.04074 6.52539 2.10525 6.52539C2.25772 6.52539 2.38087 6.5783 2.45124 6.67236C2.49229 6.72527 2.5392 6.81345 2.50988 6.94866C2.48056 7.1015 2.3105 7.20144 2.18148 7.27787L2.17562 7.28375C2.12871 7.30138 2.08179 7.31314 2.02901 7.31314Z" fill="white"/>
<path d="M6.70278 1.7165C6.6676 1.7165 6.63241 1.71062 6.59722 1.71062C6.5679 1.70474 6.53858 1.70474 6.51513 1.70474H6.4858C6.46235 1.70474 6.44476 1.70474 6.4213 1.70474C6.39784 1.70474 6.37439 1.70474 6.35093 1.70474C6.23951 1.70474 5.88766 1.70474 5.88766 1.31674C5.88766 1.19329 5.92284 1.09923 5.98735 1.03457C6.08118 0.940507 6.21605 0.92875 6.35093 0.92875C6.36852 0.92875 6.39198 0.92875 6.40957 0.92875C6.42716 0.92875 6.44476 0.92875 6.46235 0.92875C6.47994 0.92875 6.49167 0.92875 6.50926 0.92875C6.53272 0.92875 6.55031 0.92875 6.57377 0.922871C6.60895 0.916992 6.64414 0.916992 6.68519 0.916992C6.75556 0.916992 6.80834 0.92875 6.85525 0.952264C6.94908 0.999294 7.01945 1.06984 7.08395 1.14038C7.10741 1.1639 7.13673 1.19329 7.16019 1.21681L7.24815 1.29911L7.16605 1.38729C7.14259 1.41668 7.11327 1.44608 7.08982 1.46959C7.02531 1.54601 6.95494 1.62832 6.86111 1.6871C6.82006 1.70474 6.76729 1.7165 6.70278 1.7165Z" fill="#E28C91"/>
<path d="M17.2994 5.03779C17.2701 5.03779 17.2349 5.03779 17.1997 5.03191C17.1586 5.02603 17.1176 5.02603 17.0765 5.02603H17.0648H17.0589C17.0414 5.02603 17.0179 5.02603 17.0003 5.02603H16.9241C16.8185 5.02603 16.5019 5.02603 16.496 4.65567C16.496 4.52634 16.5253 4.4264 16.5957 4.36173C16.6895 4.26767 16.8244 4.25004 16.9534 4.25004C16.9769 4.25004 17.0003 4.25004 17.0179 4.25004C17.0355 4.25004 17.059 4.25004 17.0765 4.25004C17.0941 4.25004 17.1176 4.25004 17.1352 4.25004C17.1528 4.25004 17.1704 4.24416 17.1938 4.24416C17.229 4.23828 17.2642 4.23828 17.3052 4.23828C17.3698 4.23828 17.4225 4.25004 17.4694 4.27943C17.5633 4.33234 17.6336 4.40876 17.6981 4.48519C17.7216 4.51458 17.7509 4.5381 17.7744 4.56749L17.8623 4.65567L17.7685 4.73797C17.7392 4.76149 17.7157 4.79088 17.6864 4.8144C17.616 4.88494 17.5457 4.96136 17.4519 5.01427C17.3991 5.03779 17.3404 5.03779 17.2994 5.03779Z" fill="#E28C91"/>
<path d="M2.02901 7.31314C1.99969 7.31314 1.97037 7.30726 1.94105 7.30726C1.92932 7.30726 1.91173 7.30726 1.9 7.30138H1.87655H1.72994H1.64198C1.37222 7.30138 1.20803 7.15441 1.20803 6.91926C1.20803 6.80757 1.24321 6.70763 1.31358 6.64296C1.38982 6.56654 1.50124 6.52539 1.63611 6.52539H1.72994C1.78858 6.52539 1.84722 6.52539 1.90587 6.52539C1.97037 6.52539 2.04074 6.52539 2.10525 6.52539C2.25772 6.52539 2.38087 6.5783 2.45124 6.67236C2.49229 6.72527 2.5392 6.81345 2.50988 6.94866C2.48056 7.1015 2.3105 7.20144 2.18148 7.27787L2.17562 7.28375C2.12871 7.30138 2.08179 7.31314 2.02901 7.31314Z" fill="#E28C91"/>
</g>
<defs>
<clipPath id="clip0_2003_14584">
<rect width="19" height="19" fill="white"/>
</clipPath>
</defs>
</svg>
