<svg width="11" height="13" viewBox="0 0 11 13" fill="none" xmlns="http://www.w3.org/2000/svg">
<g clip-path="url(#clip0_2003_14619)">
<path d="M5.46414 7.32469C3.56226 7.32063 2.06414 5.68344 2.07169 3.61157C2.07924 1.61282 3.61509 -0.00405486 5.50565 7.63872e-06C7.36603 0.00407014 8.87924 1.66157 8.87169 3.68469C8.86415 5.70376 7.34339 7.32876 5.46414 7.32469ZM5.46037 6.04907C6.69056 6.04907 7.69056 4.98469 7.69433 3.66844C7.69811 2.35626 6.69433 1.26751 5.47924 1.26345C4.26037 1.25938 3.25282 2.34001 3.24905 3.64813C3.24905 4.97251 4.2415 6.04907 5.46037 6.04907Z" fill="#E5A4D3"/>
<path d="M4.35849 12.9998C3.46038 12.9998 2.55849 12.9998 1.66037 12.9998C0.520752 12.9998 -0.245286 11.8826 0.0716956 10.6964C0.388677 9.51012 0.99245 8.52293 1.86415 7.73075C2.24528 7.38543 2.76981 7.57231 2.8566 8.08012C2.90188 8.34418 2.79622 8.55137 2.60754 8.722C2.10566 9.177 1.71321 9.72543 1.44151 10.3714C1.35471 10.5745 1.28679 10.7857 1.22264 10.997C1.09434 11.4439 1.29434 11.7323 1.72453 11.7323C2.70566 11.7323 3.68679 11.7323 4.66792 11.7323C5.49056 11.7323 6.31698 11.7323 7.13962 11.7323C7.52075 11.7323 7.77736 11.9923 7.77736 12.3701C7.77358 12.7398 7.51321 12.9998 7.13207 12.9998C6.20755 12.9998 5.28302 12.9998 4.35849 12.9998Z" fill="#E5A4D3"/>
<path d="M10.9509 11.2451C10.9509 12.2241 10.2 13.0204 9.30188 13.0001C8.98113 12.9919 8.7283 12.7238 8.71698 12.3866C8.70943 12.0454 8.94339 11.7651 9.26792 11.7366C9.66415 11.7041 9.83773 11.436 9.7283 11.0297C9.47924 10.1076 9.00754 9.3438 8.33207 8.71818C8 8.40943 7.9849 7.95849 8.29811 7.69036C8.53207 7.4913 8.83019 7.50755 9.09056 7.74318C9.81509 8.4013 10.3585 9.20568 10.7019 10.1563C10.8264 10.5057 10.9019 10.8754 11 11.2369C10.9811 11.2329 10.966 11.241 10.9509 11.2451Z" fill="#E5A4D3"/>
</g>
<defs>
<clipPath id="clip0_2003_14619">
<rect width="11" height="13" fill="white"/>
</clipPath>
</defs>
</svg>
