<svg width="16" height="19" viewBox="0 0 16 19" fill="none" xmlns="http://www.w3.org/2000/svg">
<path fill-rule="evenodd" clip-rule="evenodd" d="M15.6054 15.4841C15.6054 18.6357 11.2834 19 8.03326 19L7.80068 18.9998C5.72998 18.9948 0.459229 18.864 0.459229 15.4649C0.459229 12.3776 4.60754 11.965 7.83292 11.9495L8.26583 11.9492C10.3364 11.9542 15.6054 12.085 15.6054 15.4841ZM8.03326 13.3833C3.95891 13.3833 1.89352 14.0832 1.89352 15.4649C1.89352 16.8591 3.95891 17.5657 8.03326 17.5657C12.1067 17.5657 14.1711 16.8658 14.1711 15.4841C14.1711 14.0899 12.1067 13.3833 8.03326 13.3833ZM8.03326 0C10.833 0 13.1097 2.27766 13.1097 5.0774C13.1097 7.87714 10.833 10.1538 8.03326 10.1538H8.00266C5.20865 10.1452 2.94534 7.86663 2.95487 5.07453C2.95487 2.27766 5.23256 0 8.03326 0ZM8.03326 1.36545C5.98604 1.36545 4.32033 3.03019 4.32033 5.0774C4.31366 7.11792 5.96692 8.78171 8.00553 8.78936L8.03326 9.47208V8.78936C10.0795 8.78936 11.7443 7.12366 11.7443 5.0774C11.7443 3.03019 10.0795 1.36545 8.03326 1.36545Z" fill="#637381"/>
</svg>
