<svg width="15" height="17" viewBox="0 0 15 17" fill="none" xmlns="http://www.w3.org/2000/svg">
<path d="M7.09898 1.53768C6.31303 1.53768 5.66414 1.80655 5.10806 2.36263C4.55184 2.91885 4.28286 3.56786 4.28286 4.35355C4.28286 5.1395 4.55184 5.7885 5.10804 6.34458C5.66439 6.9007 6.31329 7.16967 7.09898 7.16967C7.88481 7.16967 8.53382 6.90081 9.09002 6.34461C9.09003 6.3446 9.09003 6.3446 9.09003 6.3446M7.09898 1.53768L9.16074 2.29192C9.73557 2.86687 10.0151 3.5413 10.0151 4.35355C10.0151 5.16605 9.73557 5.84036 9.16074 6.41531L9.09003 6.3446M7.09898 1.53768C7.88481 1.53768 8.53382 1.80654 9.09002 2.36262M7.09898 1.53768L9.09002 2.36262M9.09003 6.3446C9.64613 5.78838 9.91511 5.13949 9.91511 4.35355C9.91511 3.56785 9.64613 2.91884 9.09002 2.36262M9.09003 6.3446L9.09002 2.36262M9.89454 7.14898L9.89454 7.14897C10.6623 6.3811 11.0527 5.43905 11.0527 4.35355C11.0527 3.26843 10.6624 2.32626 9.89442 1.55813L9.8944 1.55812C9.1264 0.790364 8.18423 0.400061 7.09898 0.400061C6.01349 0.400061 5.07144 0.790364 4.30355 1.55825C3.53567 2.32613 3.14524 3.2683 3.14524 4.35355C3.14524 5.43905 3.53567 6.38122 4.30355 7.1491L4.30357 7.14912C5.07169 7.91686 6.01385 8.30729 7.09898 8.30729C8.18435 8.30729 9.12653 7.91699 9.89454 7.14898Z" fill="#637381" stroke="#637381" stroke-width="0.2"/>
<path d="M13.8108 11.7745L13.8108 11.7746C13.8756 12.1366 13.9199 12.4803 13.9417 12.7963M13.8108 11.7745L0.457733 12.7966C0.436326 13.1046 0.425513 13.4249 0.425513 13.7484C0.425513 14.6063 0.699114 15.3103 1.2456 15.8308L1.24564 15.8308C1.78437 16.3435 2.49463 16.5999 3.34789 16.5999H11.052C11.905 16.5999 12.6152 16.3435 13.1541 15.8308L13.1541 15.8308C13.7007 15.3107 13.9743 14.6064 13.9743 13.7482V13.7482C13.9742 13.4237 13.9633 13.1034 13.9417 12.7963M13.8108 11.7745C13.7451 11.4089 13.6605 11.0625 13.5589 10.7452L13.5589 10.7452M13.8108 11.7745L13.5589 10.7452M13.9417 12.7963L13.8423 12.8032L13.9417 12.7962C13.9417 12.7962 13.9417 12.7962 13.9417 12.7963ZM13.5589 10.7452C13.4532 10.4153 13.3099 10.0899 13.1327 9.77834C12.9481 9.45345 12.7304 9.16914 12.4848 8.9343C12.226 8.68662 11.9103 8.48868 11.5474 8.34488L11.5474 8.34486M13.5589 10.7452L11.5474 8.34486M11.5474 8.34486C11.1837 8.20098 10.7822 8.12874 10.3551 8.12874C10.1597 8.12874 9.97987 8.21153 9.67416 8.41056L9.6741 8.41061M11.5474 8.34486L9.6741 8.41061M9.6741 8.41061C9.4867 8.53282 9.2674 8.67422 9.02252 8.83068C8.82265 8.95804 8.54739 9.08001 8.20129 9.19181L8.20124 9.19182M9.6741 8.41061L8.20124 9.19182M8.20124 9.19182C7.86853 9.29948 7.5315 9.35383 7.19944 9.35383C6.86762 9.35383 6.53058 9.29948 6.19761 9.19182L6.19758 9.19181M8.20124 9.19182L6.19758 9.19181M6.19758 9.19181C5.85183 9.08013 5.57649 8.95816 5.37702 8.83085M6.19758 9.19181L5.37702 8.83085M1.91426 8.93444L1.91426 8.93444C2.17338 8.68651 2.48922 8.48856 2.85184 8.345L1.91426 8.93444ZM1.91426 8.93444C1.66873 9.16938 1.45102 9.45355 1.26656 9.77834L1.91426 8.93444ZM0.840419 10.7454L0.840428 10.7454C0.946124 10.4152 1.08957 10.0899 1.26656 9.77835L0.840419 10.7454ZM0.840419 10.7454C0.738959 11.0627 0.654337 11.4089 0.58871 11.7745L0.840419 10.7454ZM12.3697 15.0066L12.3697 15.0066C12.6803 14.7111 12.8366 14.3047 12.8367 13.7484C12.8366 13.4499 12.8267 13.1563 12.8069 12.8757L12.8064 12.8687H12.8065C12.7873 12.5964 12.7484 12.2959 12.6911 11.9753C12.6341 11.658 12.5615 11.3608 12.4755 11.0921C12.394 10.8374 12.2823 10.5843 12.1436 10.3404L12.1436 10.3404C12.0123 10.1093 11.8623 9.91309 11.6984 9.75632C11.5483 9.61268 11.3571 9.49309 11.1287 9.40265C10.9272 9.32294 10.6998 9.27732 10.4509 9.26804C10.4184 9.28629 10.3683 9.31612 10.2954 9.36358C10.1023 9.48951 9.8861 9.62883 9.63463 9.78956L9.63454 9.78962C9.34806 9.97227 8.98311 10.1348 8.55122 10.2743M12.3697 15.0066L10.4268 9.16722C10.394 9.18467 10.3355 9.21812 10.2408 9.27976C10.0481 9.4055 9.83212 9.54465 9.58077 9.7053C9.30355 9.88205 8.94699 10.0414 8.52048 10.1792C8.08505 10.3199 7.6406 10.3915 7.19956 10.3915C6.75852 10.3915 6.31419 10.3199 5.87852 10.1791C5.45237 10.0415 5.09568 9.88205 4.81883 9.70554C4.57323 9.54868 4.35106 9.40537 4.15831 9.27976C4.06358 9.218 4.00511 9.18467 3.97228 9.16722M12.3697 15.0066C12.0511 15.3099 11.6245 15.4623 11.0518 15.4623H3.34789C2.77505 15.4623 2.34854 15.3099 2.03 15.0067C1.71942 14.7111 1.56313 14.3046 1.56313 13.7484C1.56313 13.4507 1.57295 13.157 1.59255 12.8753L1.59256 12.8753C1.61155 12.6007 1.65046 12.298 1.7084 11.9755L1.70841 11.9755C1.76548 11.6578 1.83796 11.3606 1.92384 11.0922L12.3697 15.0066ZM8.55122 10.2743L8.5211 10.1811L8.55123 10.2743C8.55123 10.2743 8.55123 10.2743 8.55122 10.2743ZM8.55122 10.2743C8.10627 10.4182 7.65145 10.4915 7.19956 10.4915C6.74766 10.4915 6.29296 10.4182 5.84775 10.2742M5.84775 10.2742C5.84777 10.2742 5.84778 10.2742 5.8478 10.2742L5.87851 10.1791L5.84775 10.2742ZM5.84775 10.2742C5.41623 10.1349 5.05116 9.97226 4.76507 9.78986L4.765 9.78982C4.51918 9.63282 4.29675 9.48934 4.10371 9.36354L4.10369 9.36353C4.03086 9.31604 3.98076 9.28627 3.94823 9.26804M3.94823 9.26804C3.95711 9.2677 3.96601 9.26742 3.97495 9.26718L3.97228 9.16722M3.94823 9.26804C3.69941 9.27732 3.47206 9.32294 3.27068 9.40265L3.27067 9.40266C3.0421 9.4931 2.85096 9.61257 2.70086 9.75629L2.70086 9.75629C2.53696 9.91321 2.38692 10.1094 2.25562 10.3403C2.11704 10.5843 2.00551 10.8373 1.92385 11.0922L2.63171 9.68406M3.94823 9.26804C3.93932 9.26304 3.93172 9.25891 3.92534 9.25551L3.97228 9.16722M3.97228 9.16722C3.70287 9.17442 3.4547 9.22227 3.23388 9.30967C2.99511 9.40415 2.79247 9.53013 2.63171 9.68406M2.63171 9.68406C2.45983 9.84861 2.30407 10.0528 2.16869 10.2909C2.02685 10.5406 1.91247 10.7999 1.82861 11.0617L2.63171 9.68406ZM5.37702 8.83085C5.13443 8.67583 4.91497 8.5344 4.72474 8.41046M5.37702 8.83085L4.72474 8.41046M4.72474 8.41046C4.41925 8.21141 4.23942 8.12862 4.04405 8.12862M4.72474 8.41046L4.04405 8.12862M4.04405 8.12862C3.61673 8.12862 3.21542 8.20098 2.85185 8.34499L4.04405 8.12862ZM0.588706 11.7745C0.523715 12.1362 0.479629 12.48 0.457736 12.7966L0.588706 11.7745Z" fill="#637381" stroke="#637381" stroke-width="0.2"/>
</svg>
