<svg width="20" height="20" viewBox="0 0 20 20" fill="none" xmlns="http://www.w3.org/2000/svg">
<path opacity="0.4" d="M15.1764 5.63686C15.108 5.62709 15.0396 5.62709 14.9712 5.63686C13.457 5.58801 12.2554 4.34732 12.2554 2.82331C12.2554 1.27 13.5156 0 15.0787 0C16.632 0 17.902 1.26023 17.902 2.82331C17.8922 4.34732 16.6906 5.58801 15.1764 5.63686Z" fill="#1C4A5A"/>
<path opacity="0.4" d="M18.3619 12.4071C17.2677 13.1397 15.7339 13.4133 14.3174 13.2277C14.6886 12.4266 14.884 11.5376 14.8938 10.5997C14.8938 9.62282 14.6789 8.69474 14.2686 7.88389C15.7144 7.68853 17.2482 7.96205 18.3521 8.69474C19.8956 9.71074 19.8956 11.3813 18.3619 12.4071Z" fill="#1C4A5A"/>
<path opacity="0.4" d="M4.34354 5.63686C4.41193 5.62709 4.48031 5.62709 4.5487 5.63686C6.06293 5.58801 7.26455 4.34732 7.26455 2.82331C7.26455 1.27 6.00431 0 4.44123 0C2.88792 0 1.61792 1.26023 1.61792 2.82331C1.62769 4.34732 2.82931 5.58801 4.34354 5.63686Z" fill="#1C4A5A"/>
<path opacity="0.4" d="M4.44989 10.5999C4.44989 11.5476 4.65505 12.4463 5.02628 13.2572C3.64881 13.4037 2.21274 13.1106 1.15766 12.417C-0.385885 11.3912 -0.385885 9.7207 1.15766 8.69493C2.20297 7.99155 3.67812 7.70824 5.06536 7.86455C4.66482 8.68516 4.44989 9.61324 4.44989 10.5999Z" fill="#1C4A5A"/>
<path d="M9.89291 13.5499C9.81476 13.5401 9.72684 13.5401 9.63891 13.5499C7.84137 13.4912 6.40527 12.0161 6.40527 10.199C6.40527 8.34284 7.89999 6.83838 9.76591 6.83838C11.6221 6.83838 13.1265 8.34284 13.1265 10.199C13.1265 12.0161 11.7002 13.4912 9.89291 13.5499Z" fill="#1C4A5A"/>
<path d="M6.71794 15.5721C5.24278 16.5588 5.24278 18.1805 6.71794 19.1574C8.39827 20.2809 11.1532 20.2809 12.8335 19.1574C14.3087 18.1707 14.3087 16.549 12.8335 15.5721C11.163 14.4486 8.40804 14.4486 6.71794 15.5721Z" fill="#1C4A5A"/>
</svg>
