<svg width="19" height="19" viewBox="0 0 19 19" fill="none" xmlns="http://www.w3.org/2000/svg">
<path d="M13.9758 1.69604C14.8152 1.69254 15.3921 1.69102 15.8314 1.73581C15.9742 1.75036 16.0935 1.76912 16.195 1.79178L7.33785 10.0584C7.09376 10.2862 7.09376 10.6555 7.33785 10.8833C7.58192 11.1111 7.97765 11.1111 8.22173 10.8833L17.0788 2.61674C17.1031 2.71133 17.1231 2.8227 17.1388 2.95597C17.1867 3.36605 17.1851 3.90438 17.1814 4.68789L17.1721 6.61845C17.1705 6.94061 17.4491 7.20294 17.7944 7.20437C18.1395 7.20581 18.4205 6.94581 18.4221 6.62365L18.4315 4.65833C18.4351 3.9181 18.438 3.31312 18.3814 2.82932C18.3225 2.32622 18.1928 1.88082 17.8751 1.49754C17.8062 1.41458 17.7321 1.3358 17.6528 1.26165C17.5717 1.18561 17.4852 1.11444 17.3941 1.0486C16.9834 0.751969 16.5061 0.630983 15.9671 0.576036C15.4488 0.52321 14.8005 0.525916 14.0075 0.529236L11.9018 0.537996C11.5566 0.539436 11.278 0.801769 11.2796 1.12393C11.2811 1.44609 11.5622 1.70609 11.9074 1.70465L13.9758 1.69604Z" fill="#89969F"/>
<path d="M9.84091 3.01052C9.33621 3.00488 8.78031 3.00488 8.16945 3.00488H8.12904C6.5986 3.00487 5.39892 3.00487 4.44714 3.10111C3.47587 3.19934 2.68888 3.40335 2.01694 3.859C1.61015 4.13484 1.25242 4.46874 0.956881 4.8484C0.468681 5.47554 0.250087 6.21006 0.144855 7.11659C0.0417367 8.00491 0.041741 9.1246 0.0417482 10.553V10.6234C0.041741 12.0518 0.0417367 13.1715 0.144855 14.0599C0.250087 14.9664 0.468681 15.7009 0.956881 16.328C1.25242 16.7077 1.61015 17.0416 2.01694 17.3175C2.68888 17.7731 3.47587 17.9771 4.44714 18.0753C5.39891 18.1716 6.59855 18.1716 8.12895 18.1716H8.20448C9.73488 18.1716 10.9346 18.1716 11.8864 18.0753C12.8576 17.9771 13.6446 17.7731 14.3165 17.3175C14.7233 17.0416 15.0811 16.7077 15.3766 16.328C15.8648 15.7009 16.0833 14.9664 16.1886 14.0599C16.2918 13.1715 16.2918 12.0519 16.2918 10.6235V10.5855C16.2918 10.0155 16.2918 9.49667 16.2858 9.02567C16.2816 8.70352 15.9983 8.44551 15.6532 8.44936C15.3081 8.45323 15.0316 8.71751 15.0358 9.03966C15.0418 9.50303 15.0418 10.0152 15.0418 10.5882C15.0418 12.0594 15.0409 13.116 14.9459 13.9341C14.8522 14.7415 14.6729 15.2472 14.3653 15.6423C14.1469 15.9229 13.8825 16.1697 13.5818 16.3736C13.1585 16.6607 12.6166 16.828 11.7517 16.9155C10.8751 17.004 9.74305 17.0049 8.16675 17.0049C6.59044 17.0049 5.45841 17.004 4.58178 16.9155C3.71685 16.828 3.17501 16.6607 2.75168 16.3736C2.45101 16.1697 2.1866 15.9229 1.96815 15.6423C1.66058 15.2472 1.4813 14.7415 1.38758 13.9341C1.29261 13.116 1.29175 12.0594 1.29175 10.5882C1.29175 9.11699 1.29261 8.06043 1.38758 7.24226C1.4813 6.43499 1.66058 5.92926 1.96815 5.53415C2.1866 5.25352 2.45101 5.00674 2.75168 4.80286C3.17501 4.51579 3.71685 4.34846 4.58178 4.26099C5.45841 4.17235 6.59044 4.17155 8.16675 4.17155C8.78065 4.17155 9.32945 4.17156 9.82592 4.17711C10.1711 4.18098 10.4542 3.92295 10.4584 3.60082C10.4625 3.27867 10.1861 3.01439 9.84091 3.01052Z" fill="#89969F"/>
</svg>
