<svg width="15" height="15" viewBox="0 0 15 15" fill="none" xmlns="http://www.w3.org/2000/svg">
<path d="M14.9991 7.44005V10.0494C14.9679 10.8268 13.8585 10.8268 13.8272 10.0494V8.89318L11.964 10.7565C11.8546 10.8658 11.7062 10.9283 11.5499 10.9283H8.59287L4.69053 14.8307C4.46006 15.0612 4.08897 15.0612 3.8624 14.8307C3.63193 14.6002 3.63193 14.2291 3.8624 14.0026L7.93662 9.92834C8.046 9.81896 8.19444 9.75646 8.35069 9.75646H11.3077L13.0343 8.02599H11.7765C10.9991 7.99474 10.9991 6.88537 11.7765 6.85412H14.4132C14.7374 6.85412 14.9991 7.11584 14.9991 7.44005ZM14.4132 11.8033C14.089 11.8033 13.8272 12.0651 13.8272 12.3893V14.4127C13.8585 15.1901 14.9679 15.1901 14.9991 14.4127V12.3893C14.9991 12.069 14.7374 11.8033 14.4132 11.8033ZM12.0694 11.8033C11.7452 11.8033 11.4835 12.0651 11.4835 12.3893V14.4127C11.5147 15.1901 12.6241 15.1901 12.6554 14.4127V12.3893C12.6554 12.069 12.3937 11.8033 12.0694 11.8033ZM9.72568 11.8033C9.40147 11.8033 9.13975 12.0651 9.13975 12.3893V14.4127C9.171 15.1901 10.2804 15.1901 10.3116 14.4127V12.3893C10.3116 12.069 10.0499 11.8033 9.72568 11.8033ZM7.38193 13.5924C7.05772 13.5924 6.796 13.8541 6.796 14.1783V14.4127C6.82725 15.1901 7.93662 15.1901 7.96787 14.4127V14.1783C7.96787 13.8541 7.70615 13.5924 7.38193 13.5924ZM6.18272 9.92834C6.50693 9.92834 6.76865 9.66662 6.76865 9.3424V8.98302C8.60459 8.30334 8.16319 5.60021 6.18272 5.56505C5.40537 5.5338 5.40928 4.42833 6.18272 4.39708C6.41709 4.39708 6.60459 4.52208 6.69834 4.74083C6.82334 5.03771 7.16709 5.17834 7.46787 5.04943C7.76475 4.92443 7.90537 4.58068 7.77647 4.2799C7.58115 3.81896 7.21397 3.47912 6.76865 3.32287V2.92833C6.7374 2.15099 5.62803 2.15099 5.59678 2.92833V3.32677C3.76084 4.00646 4.19834 6.70177 6.18272 6.73693C6.95615 6.76818 6.96397 7.88146 6.18272 7.91271C5.95615 7.91271 5.72959 7.76427 5.63193 7.54943C5.49912 7.25255 5.15147 7.12365 4.8585 7.25646C4.56162 7.38927 4.43272 7.73693 4.56553 8.0299C4.76475 8.47521 5.14756 8.81505 5.59678 8.97912V9.3424C5.59678 9.66662 5.8585 9.92834 6.18272 9.92834ZM4.15928 11.9361C4.39365 11.9361 4.61631 11.7916 4.70615 11.5611C4.82334 11.2604 4.671 10.9205 4.37022 10.8033C-0.731347 8.74474 0.639747 1.26036 6.15147 1.17052C8.57725 1.17052 10.6397 2.90099 11.0577 5.2838C11.1124 5.60412 11.4171 5.81505 11.7374 5.76037C12.0577 5.70568 12.2687 5.40099 12.214 5.08068C11.9679 3.67052 11.2296 2.38537 10.1319 1.45568C6.17881 -1.91932 -0.0165032 0.947865 -0.000878206 6.15099C-0.0321282 8.65099 1.6124 11.0299 3.94834 11.8971C4.01865 11.9244 4.08897 11.9361 4.15928 11.9361Z" fill="#D3B35B"/>
</svg>
