<svg width="14" height="12" viewBox="0 0 14 12" fill="none" xmlns="http://www.w3.org/2000/svg">
<path fill-rule="evenodd" clip-rule="evenodd" d="M1.43177 4.87393C4.93001 3.34981 7.26273 2.34501 8.4299 1.85954C11.7624 0.473427 12.4549 0.232645 12.9062 0.224694C13.0055 0.222945 13.2275 0.247547 13.3712 0.36421C13.4926 0.462718 13.526 0.595788 13.542 0.689185C13.558 0.782581 13.5779 0.99534 13.5621 1.16158C13.3815 3.05907 12.6001 7.66375 12.2026 9.78896C12.0343 10.6882 11.7031 10.9897 11.3825 11.0192C10.6856 11.0834 10.1564 10.5587 9.48149 10.1163C8.42533 9.42395 7.82867 8.99298 6.80349 8.3174C5.61872 7.53665 6.38676 7.10754 7.06196 6.40625C7.23866 6.22272 10.3091 3.42996 10.3685 3.17661C10.3759 3.14493 10.3828 3.02682 10.3126 2.96446C10.2425 2.90209 10.1389 2.92342 10.0642 2.94038C9.95826 2.96442 8.27104 4.07961 5.00252 6.28595C4.52361 6.61481 4.08982 6.77504 3.70117 6.76664C3.2727 6.75738 2.44851 6.52438 1.83582 6.32522C1.08431 6.08094 0.487036 5.95178 0.539046 5.53691C0.566136 5.32082 0.86371 5.09983 1.43177 4.87393Z" fill="white"/>
</svg>
