<svg width="10" height="12" viewBox="0 0 10 12" fill="none" xmlns="http://www.w3.org/2000/svg">
<path fill-rule="evenodd" clip-rule="evenodd" d="M2.77924 2.9756C2.70514 2.8135 2.63861 2.65143 2.57971 2.4873C2.49126 2.24114 2.43625 1.98395 2.36135 1.73415C2.32948 1.6282 2.24208 1.35314 2.2365 1.3117C2.1897 0.95011 2.45712 0.821203 2.53696 0.789586C2.5753 0.773181 2.97238 0.617739 3.18234 1.04806C3.43942 1.5741 3.62389 2.12369 3.73224 2.68141C3.94641 3.12286 4.22359 3.54538 4.53804 3.9109C5.78908 5.36457 7.36423 5.11629 9.01965 4.65637C9.27385 4.58417 9.53945 4.72766 9.62078 4.97778C9.70262 5.22981 9.57192 5.50198 9.32398 5.59295C8.42039 5.93115 6.97393 7.11607 6.61244 8.04298C6.53686 8.23701 6.5724 8.6466 6.58357 9.05454C6.59837 9.62097 6.58741 10.1882 6.47636 10.4551C6.46 10.4963 6.24331 10.9305 6.16441 11.0068C5.97432 11.1886 5.77707 11.1658 5.6584 11.1281C5.53974 11.0904 5.39085 10.9933 5.28834 10.7938C5.18117 10.5854 5.09996 10.1206 5.06646 10.0253C4.94481 9.67966 4.68871 9.00616 4.38523 8.44961C4.22173 8.14996 4.05972 7.87648 3.88341 7.7663C3.23073 7.35852 2.44152 7.65586 1.78285 7.92844C1.70701 7.95898 1.63168 7.99144 1.55603 8.02193C1.30008 8.17843 1.02134 8.31852 0.719179 8.43833C0.263042 8.61984 0.0695817 8.20759 0.0577186 8.1801C0.0320775 8.11951 -0.0874306 7.80398 0.232797 7.57916C0.267941 7.55543 0.536818 7.41591 0.640235 7.36162C0.784397 7.2862 0.932319 7.21795 1.08133 7.15144C2.55524 6.22087 3.05231 4.58296 2.77924 2.9756ZM3.79568 4.56165C4.73895 5.65415 5.82261 6.0139 6.98805 5.99602L6.98786 5.99607C6.40171 6.53544 5.90118 7.14797 5.69263 7.68429C5.61337 7.88749 5.59041 8.25958 5.58995 8.67064C5.43848 8.32891 5.26123 7.96955 5.07458 7.67201C4.86193 7.33237 4.62685 7.06622 4.40726 6.9288C3.98347 6.66413 3.51766 6.57836 3.04734 6.60012C3.4529 5.98647 3.69873 5.29092 3.79568 4.56165Z" fill="#AB92F0"/>
</svg>
