<svg width="20" height="22" viewBox="0 0 20 22" fill="none" xmlns="http://www.w3.org/2000/svg">
<path d="M9.99986 12.7806C9.5832 12.7806 9.23767 12.4351 9.23767 12.0184V6.68309C9.23767 6.26643 9.5832 5.9209 9.99986 5.9209C10.4165 5.9209 10.7621 6.26643 10.7621 6.68309V12.0184C10.7621 12.4351 10.4165 12.7806 9.99986 12.7806Z" fill="#FFB34B"/>
<path d="M9.99978 16.3372C9.72539 16.3372 9.47132 16.2356 9.27824 16.0425C9.18677 15.9409 9.11563 15.8291 9.05466 15.7071C9.00385 15.5852 8.98352 15.4531 8.98352 15.3209C8.98352 15.0567 9.09531 14.7925 9.27824 14.5994C9.65425 14.2234 10.3453 14.2234 10.7213 14.5994C10.9042 14.7925 11.016 15.0567 11.016 15.3209C11.016 15.4531 10.9855 15.5852 10.9347 15.7071C10.8839 15.8291 10.8128 15.9409 10.7213 16.0425C10.5282 16.2356 10.2742 16.3372 9.99978 16.3372Z" fill="#FFB34B"/>
<path d="M10 21.9269C9.31913 21.9269 8.62807 21.7541 8.01832 21.3984L1.98171 17.9127C0.762204 17.2013 0 15.8903 0 14.4777V7.52651C0 6.11391 0.762204 4.80294 1.98171 4.09156L8.01832 0.605801C9.23783 -0.10558 10.7521 -0.10558 11.9817 0.605801L18.0183 4.09156C19.2378 4.80294 20 6.11391 20 7.52651V14.4777C20 15.8903 19.2378 17.2013 18.0183 17.9127L11.9817 21.3984C11.372 21.7541 10.6809 21.9269 10 21.9269ZM10 1.60171C9.58335 1.60171 9.15653 1.7135 8.78051 1.92692L2.74391 5.41268C1.99188 5.84967 1.52439 6.65253 1.52439 7.52651V14.4777C1.52439 15.3415 1.99188 16.1545 2.74391 16.5915L8.78051 20.0773C9.53254 20.5143 10.4675 20.5143 11.2094 20.0773L17.2459 16.5915C17.998 16.1545 18.4655 15.3517 18.4655 14.4777V7.52651C18.4655 6.66269 17.998 5.84967 17.2459 5.41268L11.2094 1.92692C10.8435 1.7135 10.4167 1.60171 10 1.60171Z" fill="#FFB34B"/>
</svg>
