<svg width="10" height="10" viewBox="0 0 10 10" fill="none" xmlns="http://www.w3.org/2000/svg">
<path fill-rule="evenodd" clip-rule="evenodd" d="M3.17476 2.33717C3.11024 2.19604 3.05232 2.05494 3.00104 1.91205C2.92404 1.69773 2.87614 1.47382 2.81093 1.25634C2.78319 1.1641 2.70709 0.924619 2.70223 0.888543C2.66149 0.573733 2.89431 0.461504 2.96383 0.433977C2.9972 0.419695 3.34291 0.284362 3.52571 0.659007C3.74953 1.117 3.91013 1.59548 4.00446 2.08104C4.19092 2.46538 4.43224 2.83323 4.70601 3.15147C5.79519 4.41706 7.16655 4.20091 8.6078 3.80048C8.82911 3.73762 9.06035 3.86256 9.13115 4.08031C9.20241 4.29973 9.08862 4.53669 8.87275 4.61589C8.08607 4.91034 6.82675 5.94196 6.51203 6.74894C6.44622 6.91787 6.47717 7.27447 6.4869 7.62963C6.49978 8.12278 6.49024 8.61659 6.39355 8.84897C6.37931 8.88482 6.19066 9.26289 6.12196 9.32935C5.95647 9.48761 5.78473 9.46776 5.68142 9.43493C5.57811 9.40209 5.44848 9.31757 5.35923 9.14391C5.26593 8.96244 5.19523 8.55775 5.16606 8.47479C5.06016 8.17388 4.83719 7.58751 4.57297 7.10297C4.43062 6.84208 4.28957 6.60399 4.13607 6.50806C3.56783 6.15304 2.88073 6.41191 2.30728 6.64922C2.24125 6.67582 2.17566 6.70408 2.1098 6.73062C1.88697 6.86687 1.64429 6.98884 1.38122 7.09315C0.984099 7.25118 0.815668 6.89226 0.805339 6.86833C0.783016 6.81557 0.678969 6.54087 0.957767 6.34513C0.988364 6.32447 1.22245 6.20301 1.31249 6.15574C1.438 6.09007 1.56679 6.03065 1.69652 5.97275C2.97973 5.16257 3.41249 3.73657 3.17476 2.33717ZM4.05969 3.71803C4.88093 4.66917 5.82438 4.98239 6.83904 4.96682L6.83888 4.96686C6.32856 5.43645 5.89279 5.96973 5.71122 6.43666C5.64221 6.61357 5.62222 6.93752 5.62182 7.2954C5.48995 6.99788 5.33564 6.68502 5.17314 6.42597C4.988 6.13027 4.78333 5.89856 4.59215 5.77891C4.22319 5.54849 3.81764 5.47382 3.40817 5.49276C3.76126 4.9585 3.97529 4.35294 4.05969 3.71803Z" fill="white"/>
</svg>
